<svg width="390" height="436" viewBox="0 0 390 436" fill="none" xmlns="http://www.w3.org/2000/svg">
<path d="M258.663 99.8072L34.2562 123.433L64.3688 409.455L288.776 385.83L258.663 99.8072Z" fill="#E0E0E0"/>
<path d="M267.224 105.926L45.0559 139.248L84.289 400.826L306.457 367.504L267.224 105.926Z" fill="#EBEBEB"/>
<path d="M354.609 129.544C354.609 129.544 345.784 123.728 335.093 144.752C324.403 165.776 320.313 177.888 320.313 177.888C320.313 177.888 317.479 182.248 314.453 179.414C311.427 176.58 307.276 168.357 302.132 169.822C296.795 171.348 295.034 177.304 296.028 186.059C297.022 194.814 298.574 214.067 298.705 215.811C298.836 217.555 297.833 220.041 295.478 218.427C293.124 216.814 279.425 201.572 272.588 208.495C265.752 215.419 272.588 239.329 273.295 241.963C274.001 244.596 273.478 245.712 272.222 246.323C270.966 246.933 266.859 241.422 262.796 237.254C258.732 233.086 253.282 228.961 249.672 233.277C246.062 237.594 244.911 255.548 261.985 284.725L270.792 297.744L286.488 296.872C320.043 292.957 333.681 281.229 334.954 275.735C336.227 270.242 329.661 268.393 323.879 267.652C318.098 266.911 311.192 266.98 310.956 265.594C310.721 264.207 311.314 263.117 313.834 262.106C316.354 261.094 339.567 252.139 340.971 242.512C342.374 232.885 321.987 231.176 319.249 230.225C316.511 229.275 317.941 227.017 319.38 226.083C320.819 225.15 337.142 214.747 344.746 210.3C352.35 205.853 356.039 200.857 354.051 195.677C352.123 190.68 343.098 192.293 338.974 191.613C334.849 190.933 336.663 186.015 336.663 186.015C336.663 186.015 343.909 175.464 354.242 154.239C364.576 133.015 354.373 129.448 354.373 129.448" fill="#E0E0E0"/>
<path d="M344.982 148.362C344.982 148.362 344.921 148.519 344.781 148.816L344.171 150.132L341.764 155.216C339.671 159.576 336.593 165.898 332.765 173.676C325.109 189.224 314.392 210.597 302.411 234.193C290.429 257.789 279.651 279.188 271.891 294.701L262.752 313.092L260.328 318.088L259.665 319.387C259.517 319.675 259.43 319.815 259.43 319.815C259.43 319.815 259.491 319.658 259.622 319.361L260.241 318.045L262.647 313.013C264.74 308.653 267.81 302.331 271.638 294.553C279.294 278.996 290.046 257.589 302.001 233.975C313.956 210.361 324.751 188.997 332.521 173.476C336.366 165.724 339.497 159.454 341.651 155.085C342.723 152.931 343.56 151.248 344.145 150.089L344.799 148.798C344.912 148.51 344.982 148.362 344.982 148.362Z" fill="#EBEBEB"/>
<path d="M307.468 181.542C307.644 181.879 307.778 182.236 307.869 182.606C308.096 183.294 308.393 184.35 308.741 185.562C309.456 188.073 310.346 191.561 311.261 195.424C312.177 199.287 312.953 202.696 313.572 205.339C313.86 206.524 314.095 207.527 314.287 208.338C314.399 208.699 314.475 209.07 314.514 209.446C314.337 209.108 314.2 208.751 314.104 208.382C313.877 207.693 313.581 206.681 313.232 205.426C312.543 202.906 311.697 199.409 310.782 195.537C309.866 191.666 309.038 188.282 308.401 185.649C308.114 184.463 307.869 183.46 307.669 182.658C307.568 182.293 307.501 181.919 307.468 181.542Z" fill="#EBEBEB"/>
<path d="M315.962 209.725C315.962 209.594 323.033 207.44 331.841 204.903C340.648 202.365 347.824 200.429 347.859 200.543C347.894 200.656 340.787 202.836 331.98 205.365C323.173 207.894 315.996 209.856 315.962 209.725Z" fill="#EBEBEB"/>
<path d="M295.967 245.145C296.35 245.084 296.739 245.067 297.126 245.093H300.274C302.934 245.093 306.605 245.093 310.651 244.936C314.697 244.779 318.368 244.526 321.011 244.317L324.15 244.073C324.535 244.025 324.924 244.025 325.309 244.073C324.939 244.18 324.56 244.253 324.176 244.291C323.435 244.404 322.371 244.544 321.045 244.692C318.429 244.997 314.732 245.311 310.669 245.459C306.605 245.608 302.934 245.573 300.266 245.459C298.94 245.407 297.868 245.355 297.118 245.294C296.73 245.285 296.344 245.235 295.967 245.145Z" fill="#EBEBEB"/>
<path d="M282.686 221.34C282.922 221.606 283.127 221.899 283.297 222.212C283.706 222.883 284.212 223.72 284.814 224.697C286.078 226.807 287.107 230.426 289.662 232.981C291.528 236.234 293.202 239.19 294.388 241.343C294.929 242.346 295.391 243.21 295.775 243.898C295.965 244.203 296.114 244.532 296.22 244.875C295.984 244.609 295.779 244.316 295.609 244.003C295.191 243.335 294.685 242.506 294.092 241.518C292.828 239.416 291.11 236.486 289.244 233.234C287.378 229.981 285.703 227.025 284.517 224.88L283.131 222.36C282.937 222.041 282.788 221.698 282.686 221.34Z" fill="#EBEBEB"/>
<path d="M261.061 250.369C261.355 250.721 261.615 251.1 261.837 251.502L263.79 254.676C265.429 257.371 267.653 261.112 270.094 265.254C272.536 269.396 274.707 273.163 276.268 275.892C277.001 277.209 277.62 278.299 278.091 279.153C278.33 279.541 278.534 279.95 278.701 280.374C278.408 280.024 278.148 279.647 277.925 279.249L275.972 276.066C274.332 273.381 272.109 269.64 269.676 265.498C267.243 261.356 265.054 257.589 263.493 254.851C262.761 253.543 262.151 252.444 261.671 251.598C261.432 251.207 261.228 250.795 261.061 250.369Z" fill="#EBEBEB"/>
<path d="M278.483 279.537C278.968 279.464 279.458 279.429 279.948 279.432L283.942 279.31C287.308 279.188 291.964 279.014 297.092 278.682C302.219 278.351 306.867 277.933 310.224 277.601L314.2 277.218C314.685 277.145 315.175 277.116 315.665 277.13C315.192 277.254 314.712 277.344 314.226 277.401C313.293 277.549 311.933 277.741 310.259 277.941C306.91 278.36 302.271 278.813 297.126 279.162C291.982 279.511 287.325 279.624 283.942 279.65C282.259 279.65 280.89 279.65 279.948 279.65C279.457 279.66 278.967 279.622 278.483 279.537Z" fill="#EBEBEB"/>
<path d="M17.8423 273.006C19.3956 272.217 21.0923 271.75 22.8305 271.633C24.5687 271.516 26.3126 271.752 27.9575 272.326C31.2521 273.492 34.2353 275.398 36.6775 277.898C41.5084 282.572 44.5255 289.696 46.2695 296.21C38.9447 297.675 31.367 293.472 27.661 291.1C21.7925 287.35 13.4649 277.017 17.851 273.023" fill="#F9C32B"/>
<path d="M58.992 297.727C57.2529 296.862 55.7728 295.554 54.7011 293.934C53.6293 292.314 53.0039 290.44 52.888 288.501C52.8027 286.557 53.1049 284.615 53.777 282.789C54.4492 280.962 55.4779 279.288 56.8033 277.863C58.0067 276.529 59.6024 275.308 61.39 275.395C62.2269 275.488 63.024 275.802 63.6997 276.305C64.3754 276.807 64.9054 277.481 65.2355 278.255C65.8712 279.821 66.0789 281.527 65.8372 283.199C65.2879 288.928 63.7095 294.37 59.0356 297.727" fill="#F9C32B"/>
<path d="M70.825 315.943C70.4731 315.644 70.1518 315.311 69.8658 314.949L67.337 312.15C65.2616 309.761 62.2271 306.421 60.2738 301.886C58.5438 298.046 57.8637 293.815 58.3031 289.626C58.4444 288.369 58.7372 287.133 59.1751 285.946C59.2952 285.623 59.432 285.305 59.5849 284.996C59.6808 284.786 59.7419 284.673 59.7593 284.682C59.2114 286.302 58.8287 287.973 58.617 289.67C58.2901 293.798 59.0161 297.941 60.7272 301.712C62.6282 306.159 65.5843 309.508 67.5986 311.949C68.6188 313.17 69.4559 314.155 70.0053 314.853C70.3125 315.19 70.5869 315.555 70.825 315.943Z" fill="#263238"/>
<path d="M24.8881 280.313C25.0716 280.402 25.2468 280.507 25.4113 280.627L26.8326 281.595C28.0709 282.467 29.841 283.696 32.0123 285.257C36.3723 288.388 42.3106 292.791 48.7634 297.805C55.2162 302.819 60.9714 307.493 65.0785 310.929C67.1277 312.673 68.7758 314.051 69.9094 315.036L71.2 316.178C71.4965 316.449 71.6447 316.588 71.6273 316.606C71.454 316.505 71.2905 316.388 71.1389 316.257L69.7873 315.184L64.8605 311.199C60.6401 307.816 54.9023 303.203 48.4321 298.224C41.9618 293.245 36.0671 288.772 31.7769 285.571L26.6931 281.787L25.3153 280.74C25.1569 280.615 25.0135 280.472 24.8881 280.313Z" fill="#263238"/>
<path d="M56.2801 307.929C52.6556 305.999 48.6236 304.958 44.5174 304.895C40.4112 304.831 36.3489 305.746 32.6663 307.563C30.8089 308.505 28.8469 310.092 29.0126 312.167C29.1783 314.243 31.3845 315.507 33.3726 316.1C37.5783 317.251 42.0308 317.131 46.1682 315.755C50.3056 314.378 53.9426 311.807 56.6201 308.365" fill="#F9C32B"/>
<path d="M38.2471 310.711C38.6043 310.462 38.9873 310.251 39.3894 310.083C39.8407 309.842 40.3066 309.629 40.7846 309.447C41.4045 309.178 42.0392 308.945 42.6856 308.749C43.4604 308.485 44.2493 308.263 45.0487 308.086C45.9666 307.872 46.8951 307.706 47.8303 307.589C49.9804 307.348 52.1506 307.348 54.3006 307.589C56.4486 307.856 58.5583 308.371 60.5877 309.124C61.4813 309.457 62.3547 309.841 63.2037 310.275C63.9394 310.645 64.6554 311.052 65.3488 311.496C66.0028 311.871 66.5173 312.316 67.0056 312.656C67.4206 312.953 67.8167 313.277 68.1916 313.624C68.5321 313.884 68.8474 314.176 69.1333 314.496C69.0548 314.583 67.7032 313.301 65.1657 311.757C64.4744 311.336 63.7613 310.952 63.0293 310.606C62.1957 310.193 61.3398 309.826 60.4656 309.508C58.4652 308.793 56.3917 308.301 54.2831 308.043C52.1673 307.816 50.0334 307.816 47.9176 308.043C46.9948 308.146 46.0779 308.298 45.1708 308.496C44.2988 308.644 43.5314 308.889 42.8163 309.08C39.9387 309.935 38.2907 310.807 38.2471 310.711Z" fill="#263238"/>
<path d="M282.651 342.129C276.547 338.205 274.35 333.174 273.391 325.98C272.937 322.371 273.262 318.706 274.343 315.233C275.425 311.76 277.238 308.559 279.66 305.845C283.724 301.363 289.427 298.302 292.383 293.018C295.522 287.385 295.121 279.938 299.603 275.273C302.69 272.09 307.338 271.096 311.139 268.829C314.252 266.98 316.764 264.303 319.58 262.045C322.397 259.786 325.78 257.868 329.39 257.999C334.84 258.199 339.279 263.37 339.741 268.803C340.203 274.235 337.378 279.554 333.358 283.243C330.446 285.911 326.809 288.013 324.969 291.518C321.481 298.084 325.728 306.874 321.987 313.318C319.258 318.001 312.753 320.443 312.046 325.823C311.785 327.802 312.421 329.782 312.482 331.779C312.674 338.013 307.041 343.254 300.946 344.597C294.85 345.94 288.52 344.257 282.634 342.155" fill="#455A64"/>
<path d="M318.464 280.357C318.289 280.62 318.087 280.866 317.863 281.089L316.023 283.069C315.212 283.941 314.218 284.961 313.145 286.234C312.073 287.507 310.747 288.85 309.474 290.542C308.201 292.233 306.701 293.951 305.288 295.974C304.582 296.986 303.789 297.98 303.074 299.087L300.85 302.471C297.643 307.551 294.821 312.865 292.409 318.367C290.062 323.898 288.152 329.603 286.697 335.432C286.078 338.135 285.477 340.664 285.128 343.141C284.779 345.617 284.43 347.841 284.195 349.925C283.959 352.009 283.881 353.901 283.741 355.567C283.602 357.232 283.593 358.662 283.576 359.84C283.558 361.017 283.532 361.845 283.515 362.543C283.522 362.859 283.496 363.174 283.436 363.484C283.377 363.174 283.354 362.858 283.366 362.543C283.366 361.845 283.323 360.947 283.288 359.831C283.253 358.715 283.227 357.215 283.288 355.549C283.349 353.884 283.375 351.965 283.628 349.873C283.881 347.78 284.038 345.513 284.5 343.036C284.962 340.56 285.372 337.996 286.008 335.275C287.446 329.396 289.356 323.642 291.72 318.071C294.15 312.531 297.01 307.189 300.274 302.096L302.533 298.712C303.265 297.614 304.068 296.611 304.791 295.608C306.239 293.594 307.73 291.832 309.073 290.21C310.416 288.588 311.689 287.202 312.831 285.955C313.974 284.708 314.968 283.688 315.813 282.868C316.659 282.048 317.252 281.464 317.758 280.985C317.972 280.752 318.208 280.542 318.464 280.357Z" fill="#263238"/>
<path d="M288.092 121.339H63.4391V385.843H288.092V121.339Z" fill="#FAFAFA"/>
<path d="M288.101 385.843C288.101 384.099 288.014 278.944 287.892 121.339L288.101 121.539H63.4653L63.692 121.313C63.692 218.977 63.692 309.935 63.692 385.816L63.5001 385.625L288.162 385.816L63.5001 386.008H63.256V385.816C63.256 309.952 63.256 218.968 63.256 121.313V121.086H63.5089H288.145H288.345V121.295C288.18 278.944 288.101 384.09 288.101 385.843Z" fill="#263238"/>
<path d="M188.449 164.564H184.089L183.147 166.665H182.275L185.868 158.817H186.688L190.28 166.665H189.408L188.449 164.564ZM188.153 163.892L186.26 159.672L184.377 163.936L188.153 163.892Z" fill="black"/>
<path d="M196.742 158.329V166.665H195.974V165.497C195.738 165.884 195.402 166.201 195.002 166.416C194.602 166.631 194.152 166.735 193.699 166.718C192.93 166.676 192.206 166.342 191.677 165.783C191.147 165.224 190.852 164.483 190.852 163.714C190.852 162.944 191.147 162.203 191.677 161.644C192.206 161.086 192.93 160.751 193.699 160.71C194.14 160.699 194.578 160.801 194.97 161.005C195.361 161.21 195.695 161.51 195.94 161.878V158.329H196.742ZM195.948 163.709C195.928 163.279 195.781 162.865 195.528 162.517C195.274 162.17 194.923 161.905 194.52 161.754C194.116 161.604 193.678 161.576 193.258 161.673C192.839 161.77 192.457 161.988 192.161 162.3C191.864 162.612 191.666 163.004 191.59 163.428C191.514 163.851 191.565 164.288 191.735 164.683C191.905 165.079 192.188 165.415 192.548 165.651C192.908 165.887 193.329 166.013 193.76 166.011C194.058 166.016 194.354 165.958 194.629 165.842C194.904 165.727 195.152 165.555 195.358 165.339C195.563 165.123 195.722 164.866 195.823 164.586C195.925 164.305 195.968 164.007 195.948 163.709Z" fill="black"/>
<path d="M204.354 158.329V166.665H203.587V165.497C203.35 165.884 203.015 166.201 202.615 166.416C202.215 166.631 201.765 166.735 201.311 166.718C200.542 166.676 199.819 166.342 199.289 165.783C198.76 165.224 198.464 164.483 198.464 163.714C198.464 162.944 198.76 162.203 199.289 161.644C199.819 161.086 200.542 160.751 201.311 160.71C201.753 160.699 202.19 160.801 202.582 161.005C202.974 161.21 203.308 161.51 203.552 161.878V158.329H204.354ZM203.561 163.709C203.54 163.279 203.394 162.865 203.14 162.517C202.886 162.17 202.536 161.905 202.132 161.754C201.729 161.604 201.29 161.576 200.871 161.673C200.451 161.77 200.07 161.988 199.773 162.3C199.477 162.612 199.278 163.004 199.203 163.428C199.127 163.851 199.177 164.288 199.348 164.683C199.518 165.079 199.801 165.415 200.16 165.651C200.52 165.887 200.942 166.013 201.372 166.011C201.67 166.016 201.966 165.958 202.241 165.842C202.516 165.727 202.764 165.555 202.97 165.339C203.176 165.123 203.334 164.866 203.436 164.586C203.537 164.305 203.58 164.007 203.561 163.709Z" fill="black"/>
<path d="M214.836 160.753V166.665H214.112V165.584C213.895 165.948 213.583 166.246 213.21 166.445C212.837 166.645 212.416 166.739 211.993 166.718C211.653 166.751 211.311 166.708 210.99 166.592C210.669 166.476 210.378 166.289 210.139 166.046C209.9 165.802 209.718 165.508 209.607 165.185C209.497 164.863 209.46 164.519 209.499 164.18V160.753H210.301V164.102C210.301 165.357 210.947 166.003 212.045 166.003C212.325 166.017 212.605 165.971 212.864 165.866C213.124 165.761 213.358 165.601 213.55 165.397C213.742 165.193 213.887 164.95 213.975 164.684C214.063 164.418 214.092 164.136 214.06 163.858V160.753H214.836Z" fill="black"/>
<path d="M216.248 165.994L216.606 165.357C217.218 165.796 217.954 166.028 218.707 166.02C219.832 166.02 220.294 165.645 220.294 165.061C220.294 163.517 216.458 164.73 216.458 162.445C216.458 161.477 217.33 160.753 218.795 160.753C219.529 160.744 220.252 160.934 220.887 161.303L220.539 161.948C220.022 161.606 219.414 161.429 218.795 161.442C217.731 161.442 217.26 161.861 217.26 162.419C217.26 164.014 221.088 162.811 221.088 165.035C221.088 166.055 220.216 166.718 218.655 166.718C217.796 166.742 216.952 166.488 216.248 165.994Z" fill="black"/>
<path d="M227.706 163.936H222.762C222.779 164.224 222.852 164.506 222.979 164.765C223.105 165.025 223.282 165.256 223.498 165.447C223.715 165.638 223.967 165.783 224.24 165.876C224.514 165.968 224.803 166.005 225.09 165.985C225.43 165.996 225.768 165.933 226.08 165.799C226.392 165.664 226.67 165.463 226.896 165.209L227.34 165.732C227.055 166.051 226.704 166.302 226.31 166.468C225.916 166.634 225.491 166.71 225.064 166.692C224.659 166.716 224.253 166.656 223.872 166.514C223.491 166.373 223.144 166.154 222.853 165.871C222.561 165.587 222.332 165.247 222.18 164.87C222.028 164.493 221.956 164.089 221.969 163.683C221.947 163.292 222.006 162.902 222.14 162.534C222.275 162.167 222.483 161.831 222.752 161.547C223.021 161.263 223.345 161.036 223.704 160.882C224.064 160.727 224.451 160.647 224.842 160.647C225.233 160.647 225.62 160.727 225.98 160.882C226.339 161.036 226.663 161.263 226.932 161.547C227.201 161.831 227.409 162.167 227.544 162.534C227.678 162.902 227.737 163.292 227.715 163.683C227.715 163.779 227.706 163.866 227.706 163.936ZM222.762 163.334H226.948C226.9 162.812 226.659 162.327 226.272 161.973C225.885 161.62 225.379 161.424 224.855 161.424C224.331 161.424 223.825 161.62 223.438 161.973C223.051 162.327 222.81 162.812 222.762 163.334Z" fill="black"/>
<path d="M232.319 160.71V161.486H232.128C231.846 161.471 231.564 161.519 231.303 161.627C231.043 161.734 230.809 161.898 230.618 162.106C230.428 162.314 230.287 162.562 230.204 162.832C230.121 163.102 230.099 163.386 230.139 163.666V166.674H229.337V160.762H230.105V161.922C230.309 161.52 230.63 161.19 231.025 160.974C231.42 160.758 231.871 160.666 232.319 160.71Z" fill="black"/>
<path d="M172.108 243.541C172.108 243.541 172.108 243.366 172.108 243.053C172.108 242.739 172.108 242.25 172.108 241.64C172.108 240.384 172.108 238.553 172.108 236.181C172.108 231.429 172.055 224.523 172.021 215.837L172.169 215.977L84.0184 216.064L84.2451 215.837C84.2451 225.429 84.2451 234.76 84.2451 243.541L84.0271 243.323L147.029 243.419L165.481 243.48H170.442H171.733H172.178H171.759H170.425H165.515L147.116 243.55L83.9573 243.646H83.7306V215.611H83.9573L172.108 215.689H172.256V215.837C172.256 224.557 172.195 231.533 172.178 236.268C172.178 238.623 172.178 240.445 172.178 241.692C172.178 242.294 172.178 242.756 172.178 243.079C172.178 243.401 172.108 243.541 172.108 243.541Z" fill="#263238"/>
<path d="M269.685 281.063C269.685 281.063 269.685 280.444 269.685 279.241C269.685 278.037 269.685 276.258 269.685 273.913C269.685 269.23 269.685 262.315 269.624 253.36L269.737 253.473L84.0009 253.586L84.2276 253.36V281.063L84.0009 280.845L216.144 280.941L255.384 281.002H265.996H268.752H269.702C269.702 281.002 269.397 281.002 268.786 281.002H266.057H255.497L216.257 281.072L83.9573 281.168H83.7306V253.133H83.966L269.702 253.246H269.815V253.36C269.815 262.35 269.763 269.282 269.746 273.982C269.746 276.308 269.746 278.075 269.746 279.284C269.702 280.47 269.685 281.063 269.685 281.063Z" fill="#263238"/>
<path d="M269.685 318.332C269.685 318.332 269.685 317.704 269.685 316.51C269.685 315.315 269.685 313.519 269.685 311.182C269.685 306.491 269.685 299.584 269.624 290.629L269.737 290.734L84.0009 290.856L84.2276 290.629V318.332L84.0009 318.106L216.144 318.202L255.384 318.271H265.996H268.752H269.702H268.786H266.057H255.497L216.257 318.332L83.9573 318.437H83.7306V290.376H83.966L269.702 290.498H269.815V290.611C269.815 299.593 269.763 306.525 269.746 311.226C269.746 313.551 269.746 315.318 269.746 316.527C269.702 317.739 269.685 318.332 269.685 318.332Z" fill="#263238"/>
<path d="M269.685 243.541C269.685 243.541 269.685 243.366 269.685 243.053C269.685 242.739 269.685 242.25 269.685 241.64C269.685 240.384 269.685 238.553 269.685 236.181C269.685 231.429 269.685 224.523 269.606 215.837L269.754 215.977L181.604 216.064L181.831 215.837V243.541L181.604 243.323L244.615 243.419L263.066 243.48H268.028H269.318H269.763H269.344H268.002H263.092L244.693 243.55L181.525 243.646H181.307V243.428C181.307 234.646 181.307 225.325 181.307 215.724V215.497H181.543L269.693 215.576H269.842V215.724C269.842 224.444 269.78 231.42 269.754 236.155C269.754 238.509 269.754 240.332 269.754 241.579C269.754 242.181 269.754 242.643 269.754 242.965C269.754 243.288 269.685 243.541 269.685 243.541Z" fill="#263238"/>
<path d="M102.418 233.696C102.195 233.726 101.971 233.74 101.746 233.74L99.758 233.801C98.014 233.853 95.52 233.923 92.5204 233.958H92.2413L92.3285 233.696C92.5819 232.809 93.0629 232.003 93.7237 231.359C94.4691 230.688 95.3987 230.257 96.392 230.121L96.3397 230.548C95.7812 230.304 95.3 229.911 94.9481 229.413C94.5962 228.915 94.3869 228.331 94.3428 227.723C94.2825 227.04 94.4291 226.354 94.7634 225.756C95.0978 225.157 95.6045 224.673 96.2177 224.366C96.8028 224.097 97.4592 224.027 98.0881 224.163C98.7171 224.3 99.2847 224.637 99.7057 225.124C100.08 225.554 100.343 226.069 100.472 226.623C100.601 227.178 100.593 227.756 100.447 228.307C100.327 228.786 100.099 229.231 99.78 229.607C99.461 229.984 99.0596 230.282 98.6069 230.478V230.173C99.3842 230.288 100.123 230.587 100.761 231.045C101.229 231.397 101.626 231.835 101.929 232.336C102.203 232.752 102.384 233.221 102.461 233.713C102.461 233.713 102.391 233.583 102.295 233.373C102.149 233.047 101.977 232.732 101.781 232.432C101.418 231.892 100.941 231.439 100.383 231.105C99.8256 230.77 99.2014 230.562 98.5546 230.496L97.9704 230.426L98.5197 230.191C98.9178 230.005 99.2684 229.731 99.5449 229.389C99.8213 229.048 100.016 228.648 100.115 228.22C100.239 227.732 100.242 227.221 100.123 226.732C100.005 226.242 99.7685 225.789 99.4353 225.412C99.0666 225.006 98.5793 224.725 98.0426 224.611C97.5058 224.497 96.9467 224.554 96.4444 224.775C95.9164 225.045 95.4814 225.466 95.1954 225.986C94.9094 226.505 94.7856 227.098 94.8399 227.688C94.8776 228.218 95.0602 228.728 95.3678 229.162C95.6753 229.595 96.096 229.936 96.5839 230.147L97.3251 230.443L96.5316 230.574C95.6226 230.693 94.7711 231.086 94.09 231.699C93.474 232.286 93.0204 233.022 92.7733 233.836L92.5814 233.583C95.4852 233.583 97.9268 233.583 99.6795 233.644H101.72C101.953 233.646 102.186 233.663 102.418 233.696Z" fill="#F9C32B"/>
<path d="M205.758 233.696C205.539 233.726 205.317 233.741 205.095 233.74L203.099 233.801C201.355 233.853 198.869 233.923 195.861 233.958H195.591L195.669 233.696C195.923 232.809 196.404 232.003 197.064 231.359C197.808 230.682 198.737 230.244 199.733 230.103L199.68 230.531C199.123 230.286 198.643 229.893 198.293 229.395C197.942 228.897 197.735 228.313 197.692 227.705C197.628 227.023 197.771 226.337 198.104 225.737C198.437 225.138 198.944 224.654 199.558 224.348C200.144 224.081 200.8 224.011 201.428 224.148C202.057 224.285 202.624 224.621 203.046 225.107C203.419 225.537 203.68 226.052 203.808 226.607C203.936 227.162 203.926 227.74 203.779 228.29C203.659 228.768 203.431 229.213 203.112 229.59C202.793 229.966 202.392 230.264 201.939 230.461V230.156C202.716 230.27 203.455 230.569 204.093 231.028C204.563 231.377 204.96 231.815 205.261 232.318C205.535 232.734 205.716 233.204 205.793 233.696C205.793 233.696 205.723 233.565 205.627 233.356C205.488 233.026 205.315 232.71 205.113 232.414C204.752 231.875 204.276 231.422 203.72 231.088C203.164 230.753 202.541 230.545 201.895 230.478L201.311 230.409L201.852 230.173C202.25 229.986 202.601 229.712 202.879 229.371C203.156 229.03 203.354 228.63 203.456 228.202C203.578 227.714 203.579 227.203 203.459 226.713C203.339 226.224 203.101 225.772 202.767 225.395C202.405 224.982 201.919 224.697 201.382 224.583C200.844 224.468 200.284 224.529 199.785 224.758C199.255 225.025 198.817 225.446 198.529 225.966C198.242 226.485 198.117 227.079 198.172 227.67C198.21 228.201 198.392 228.71 198.7 229.144C199.007 229.578 199.428 229.919 199.916 230.13L200.657 230.426L199.863 230.557C198.954 230.676 198.103 231.068 197.422 231.682C196.808 232.269 196.358 233.005 196.114 233.818L195.922 233.565C198.826 233.565 201.267 233.565 203.011 233.626H205.061C205.294 233.633 205.528 233.657 205.758 233.696Z" fill="#F9C32B"/>
<path d="M112.751 227.592V229.929H115.82V230.47H112.751V232.99H112.088V227.051H116.16V227.592H112.751Z" fill="#263238"/>
<path d="M117.137 227.112C117.139 226.998 117.186 226.89 117.268 226.81C117.349 226.73 117.459 226.685 117.573 226.685C117.63 226.683 117.686 226.692 117.74 226.712C117.793 226.732 117.842 226.762 117.883 226.801C117.925 226.84 117.958 226.887 117.981 226.939C118.004 226.991 118.016 227.047 118.018 227.104C118.031 227.168 118.029 227.235 118.013 227.299C117.997 227.363 117.967 227.422 117.926 227.473C117.884 227.524 117.831 227.565 117.772 227.593C117.712 227.621 117.647 227.636 117.582 227.636C117.516 227.636 117.451 227.621 117.391 227.593C117.332 227.565 117.279 227.524 117.238 227.473C117.196 227.422 117.166 227.363 117.15 227.299C117.134 227.235 117.133 227.168 117.146 227.104L117.137 227.112ZM117.268 228.516H117.869V232.981H117.268V228.516Z" fill="#263238"/>
<path d="M121.793 228.464V229.057H121.68C121.468 229.046 121.256 229.082 121.059 229.162C120.863 229.243 120.686 229.366 120.543 229.523C120.4 229.679 120.293 229.866 120.23 230.069C120.167 230.272 120.15 230.486 120.18 230.696V232.972H119.578V228.508H120.154V229.38C120.304 229.081 120.541 228.834 120.833 228.67C121.125 228.507 121.46 228.435 121.793 228.464Z" fill="#263238"/>
<path d="M122.29 232.466L122.561 231.996C123.024 232.324 123.58 232.498 124.148 232.493C125.02 232.493 125.342 232.205 125.342 231.769C125.342 230.6 122.456 231.516 122.456 229.755C122.456 229.031 123.084 228.481 124.2 228.481C124.754 228.475 125.3 228.62 125.778 228.9L125.517 229.388C125.129 229.126 124.668 228.992 124.2 229.005C123.398 229.005 123.04 229.319 123.04 229.737C123.04 230.94 125.927 230.034 125.927 231.751C125.927 232.519 125.255 233.016 124.087 233.016C123.444 233.03 122.815 232.838 122.29 232.466Z" fill="#263238"/>
<path d="M129.406 232.702C129.14 232.916 128.806 233.027 128.464 233.016C128.289 233.036 128.111 233.017 127.945 232.96C127.778 232.903 127.626 232.809 127.5 232.685C127.375 232.561 127.279 232.41 127.219 232.244C127.159 232.078 127.138 231.901 127.156 231.725V229.031H126.363V228.516H127.156V227.592H127.784V228.56H129.136V229.074H127.784V231.734C127.769 231.84 127.779 231.948 127.811 232.05C127.844 232.153 127.899 232.246 127.973 232.324C128.047 232.402 128.137 232.462 128.237 232.5C128.337 232.539 128.445 232.554 128.551 232.545C128.792 232.551 129.028 232.471 129.214 232.318L129.406 232.702Z" fill="#263238"/>
<path d="M136.809 230.391V233.007H136.208V230.478C136.236 230.293 136.222 230.103 136.166 229.924C136.111 229.744 136.015 229.58 135.886 229.443C135.758 229.306 135.6 229.2 135.424 229.133C135.249 229.066 135.06 229.04 134.873 229.057C134.66 229.04 134.446 229.071 134.247 229.146C134.047 229.222 133.866 229.34 133.717 229.493C133.568 229.647 133.455 229.831 133.385 230.032C133.315 230.234 133.29 230.449 133.312 230.661V233.007H132.711V228.542H133.286V229.336C133.465 229.051 133.717 228.819 134.016 228.666C134.316 228.512 134.651 228.443 134.987 228.464C135.239 228.451 135.49 228.493 135.724 228.587C135.958 228.681 136.169 228.824 136.342 229.007C136.515 229.191 136.647 229.409 136.728 229.648C136.808 229.887 136.836 230.14 136.809 230.391Z" fill="#263238"/>
<path d="M141.806 230.208V232.972H141.23V232.275C141.063 232.523 140.833 232.721 140.563 232.85C140.293 232.979 139.993 233.033 139.696 233.007C138.693 233.007 138.074 232.484 138.074 231.717C138.074 230.949 138.51 230.452 139.818 230.452H141.23V230.208C141.23 229.441 140.803 229.031 139.975 229.031C139.434 229.021 138.907 229.207 138.492 229.554L138.213 229.109C138.715 228.697 139.343 228.47 139.992 228.464C140.232 228.428 140.478 228.447 140.71 228.521C140.941 228.595 141.153 228.721 141.328 228.889C141.504 229.058 141.638 229.264 141.721 229.493C141.803 229.722 141.833 229.966 141.806 230.208ZM141.204 231.629V230.897H139.809C138.937 230.897 138.667 231.237 138.667 231.699C138.667 232.161 139.076 232.571 139.791 232.571C140.096 232.588 140.397 232.506 140.652 232.338C140.906 232.17 141.1 231.925 141.204 231.638V231.629Z" fill="#263238"/>
<path d="M150.796 230.391V233.007H150.194V230.478C150.194 229.537 149.723 229.057 148.913 229.057C148.704 229.046 148.496 229.082 148.302 229.16C148.109 229.239 147.935 229.359 147.793 229.512C147.651 229.665 147.544 229.847 147.48 230.045C147.416 230.244 147.396 230.454 147.421 230.661V233.007H146.82V230.478C146.82 229.537 146.349 229.057 145.538 229.057C145.329 229.046 145.121 229.082 144.928 229.16C144.734 229.239 144.561 229.359 144.418 229.512C144.276 229.665 144.169 229.847 144.105 230.045C144.041 230.244 144.021 230.454 144.047 230.661V233.007H143.48V228.542H144.056V229.336C144.222 229.056 144.462 228.826 144.749 228.673C145.037 228.519 145.361 228.447 145.686 228.464C146.016 228.437 146.345 228.513 146.63 228.682C146.914 228.851 147.139 229.104 147.273 229.406C147.453 229.107 147.709 228.862 148.016 228.696C148.323 228.53 148.669 228.45 149.017 228.464C149.268 228.447 149.52 228.486 149.754 228.579C149.987 228.672 150.197 228.817 150.368 229.002C150.539 229.186 150.666 229.407 150.74 229.648C150.814 229.888 150.833 230.142 150.796 230.391Z" fill="#263238"/>
<path d="M156.325 230.932H152.601C152.613 231.148 152.668 231.36 152.763 231.556C152.857 231.751 152.989 231.926 153.151 232.07C153.313 232.214 153.502 232.325 153.707 232.396C153.912 232.467 154.129 232.497 154.345 232.484C154.601 232.492 154.855 232.444 155.09 232.343C155.325 232.242 155.535 232.091 155.705 231.9L156.046 232.292C155.726 232.627 155.314 232.86 154.862 232.962C154.411 233.064 153.939 233.03 153.506 232.866C153.073 232.701 152.699 232.412 152.429 232.036C152.16 231.659 152.007 231.211 151.991 230.749C151.991 230.17 152.22 229.616 152.629 229.207C153.038 228.798 153.593 228.569 154.171 228.569C154.749 228.569 155.303 228.798 155.712 229.207C156.121 229.616 156.351 230.17 156.351 230.749C156.333 230.801 156.325 230.871 156.325 230.932ZM152.601 230.487H155.758C155.74 230.081 155.563 229.699 155.267 229.422C154.97 229.145 154.577 228.995 154.171 229.005C153.767 228.995 153.375 229.146 153.081 229.423C152.787 229.701 152.615 230.083 152.601 230.487Z" fill="#263238"/>
<path d="M117.172 271.192V271.733H112.96V265.803H117.032V266.344H113.544V268.454H116.614V268.986H113.544V271.192H117.172Z" fill="#263238"/>
<path d="M125.866 269.178V271.794H125.264V269.265C125.264 268.323 124.793 267.844 123.982 267.844C123.773 267.833 123.564 267.868 123.37 267.947C123.175 268.026 123.001 268.147 122.859 268.301C122.717 268.455 122.61 268.638 122.546 268.838C122.483 269.038 122.464 269.249 122.491 269.457V271.794H121.889V269.265C121.889 268.323 121.418 267.844 120.607 267.844C120.399 267.834 120.19 267.871 119.997 267.95C119.803 268.03 119.63 268.151 119.488 268.304C119.346 268.458 119.239 268.641 119.175 268.84C119.111 269.039 119.091 269.249 119.116 269.457V271.794H118.515V267.338H119.064V268.149C119.232 267.87 119.472 267.642 119.759 267.488C120.046 267.335 120.369 267.262 120.695 267.277C121.024 267.25 121.354 267.326 121.638 267.495C121.922 267.664 122.147 267.916 122.282 268.218C122.461 267.92 122.718 267.674 123.025 267.509C123.332 267.343 123.677 267.263 124.026 267.277C124.279 267.249 124.536 267.279 124.776 267.366C125.017 267.453 125.234 267.593 125.411 267.777C125.589 267.96 125.722 268.182 125.801 268.424C125.88 268.667 125.902 268.925 125.866 269.178Z" fill="#263238"/>
<path d="M130.862 269.003V271.768H130.287V271.07C130.121 271.32 129.891 271.52 129.621 271.65C129.351 271.781 129.051 271.836 128.752 271.811C127.74 271.811 127.121 271.288 127.121 270.512C127.121 269.736 127.566 269.247 128.865 269.247H130.278V268.977C130.278 268.218 129.842 267.8 129.014 267.8C128.473 267.792 127.947 267.978 127.531 268.323L127.261 267.878C127.776 267.471 128.418 267.258 129.075 267.277C129.311 267.245 129.552 267.268 129.779 267.343C130.006 267.418 130.213 267.543 130.385 267.709C130.557 267.875 130.689 268.077 130.772 268.301C130.854 268.526 130.885 268.765 130.862 269.003ZM130.261 270.425V269.701H128.865C127.993 269.701 127.714 270.041 127.714 270.494C127.714 270.948 128.133 271.366 128.848 271.366C129.153 271.381 129.455 271.297 129.709 271.128C129.963 270.958 130.157 270.712 130.261 270.425Z" fill="#263238"/>
<path d="M132.362 265.899C132.382 265.798 132.437 265.708 132.516 265.643C132.596 265.577 132.695 265.542 132.798 265.542C132.901 265.542 133 265.577 133.08 265.643C133.159 265.708 133.214 265.798 133.234 265.899C133.247 265.963 133.245 266.03 133.23 266.094C133.214 266.158 133.184 266.217 133.142 266.268C133.1 266.319 133.048 266.36 132.988 266.389C132.929 266.417 132.864 266.431 132.798 266.431C132.732 266.431 132.667 266.417 132.608 266.389C132.548 266.36 132.496 266.319 132.454 266.268C132.412 266.217 132.382 266.158 132.366 266.094C132.351 266.03 132.349 265.963 132.362 265.899ZM132.493 267.312H133.094V271.768H132.493V267.312Z" fill="#263238"/>
<path d="M134.76 265.48H135.362V271.768H134.76V265.48Z" fill="#263238"/>
<path d="M114.704 304.965C114.704 306.229 113.832 306.988 112.28 306.988H110.684V308.862H110.056V302.933H112.28C113.771 302.933 114.704 303.691 114.704 304.965ZM114.076 304.965C114.076 304.014 113.448 303.473 112.262 303.473H110.684V306.438H112.262C113.431 306.438 114.059 305.898 114.059 304.965H114.076Z" fill="#263238"/>
<path d="M119.238 306.072V308.836H118.654V308.139C118.49 308.388 118.262 308.589 117.993 308.719C117.725 308.85 117.426 308.905 117.128 308.88C116.117 308.88 115.498 308.357 115.498 307.581C115.498 306.804 115.934 306.316 117.242 306.316H118.663V306.072C118.663 305.313 118.227 304.895 117.399 304.895C116.857 304.888 116.33 305.077 115.916 305.427L115.646 304.973C116.161 304.566 116.803 304.353 117.46 304.372C117.693 304.342 117.931 304.366 118.154 304.44C118.378 304.514 118.583 304.636 118.753 304.799C118.923 304.962 119.055 305.161 119.139 305.381C119.223 305.601 119.257 305.837 119.238 306.072ZM118.637 307.502V306.77H117.233C116.361 306.77 116.091 307.11 116.091 307.563C116.091 308.017 116.509 308.435 117.215 308.435C117.518 308.453 117.818 308.375 118.073 308.212C118.328 308.049 118.525 307.81 118.637 307.528V307.502Z" fill="#263238"/>
<path d="M120.25 308.357L120.52 307.877C120.983 308.208 121.538 308.385 122.107 308.383C122.979 308.383 123.302 308.095 123.302 307.65C123.302 306.491 120.407 307.406 120.407 305.645C120.407 304.912 121.035 304.372 122.151 304.372C122.706 304.36 123.253 304.505 123.729 304.79L123.468 305.27C123.078 305.011 122.619 304.877 122.151 304.886C121.349 304.886 120.991 305.2 120.991 305.627C120.991 306.831 123.886 305.924 123.886 307.633C123.886 308.409 123.206 308.906 122.046 308.906C121.404 308.922 120.774 308.729 120.25 308.357Z" fill="#263238"/>
<path d="M124.392 308.357L124.662 307.877C125.125 308.208 125.68 308.385 126.249 308.383C127.121 308.383 127.444 308.095 127.444 307.65C127.444 306.491 124.549 307.406 124.549 305.645C124.549 304.912 125.177 304.372 126.293 304.372C126.848 304.361 127.395 304.506 127.871 304.79L127.61 305.27C127.22 305.011 126.761 304.877 126.293 304.886C125.491 304.886 125.133 305.2 125.133 305.627C125.133 306.831 128.028 305.924 128.028 307.633C128.028 308.409 127.348 308.906 126.188 308.906C125.546 308.922 124.916 308.729 124.392 308.357Z" fill="#263238"/>
<path d="M135.632 304.406L133.888 308.862H133.321L131.943 305.2L130.54 308.854H129.973L128.29 304.398H128.874L130.269 308.182L131.699 304.398H132.223L133.644 308.182L135.057 304.398L135.632 304.406Z" fill="#263238"/>
<path d="M135.937 306.63C135.939 306.182 136.073 305.745 136.324 305.373C136.574 305.001 136.928 304.712 137.343 304.542C137.757 304.371 138.213 304.328 138.652 304.416C139.091 304.505 139.494 304.721 139.811 305.039C140.127 305.356 140.342 305.76 140.429 306.2C140.515 306.639 140.47 307.095 140.298 307.508C140.126 307.922 139.836 308.276 139.463 308.524C139.09 308.773 138.652 308.906 138.204 308.906C137.903 308.917 137.602 308.866 137.322 308.755C137.041 308.645 136.786 308.477 136.574 308.263C136.361 308.05 136.194 307.794 136.085 307.513C135.975 307.232 135.925 306.931 135.937 306.63ZM139.861 306.63C139.844 306.307 139.733 305.995 139.541 305.735C139.349 305.474 139.084 305.275 138.78 305.163C138.477 305.051 138.146 305.03 137.831 305.104C137.516 305.177 137.229 305.341 137.006 305.576C136.782 305.811 136.633 306.106 136.576 306.425C136.519 306.744 136.556 307.072 136.684 307.37C136.811 307.668 137.023 307.921 137.294 308.1C137.564 308.278 137.881 308.374 138.204 308.374C138.431 308.378 138.655 308.335 138.864 308.248C139.073 308.161 139.261 308.031 139.417 307.867C139.573 307.703 139.693 307.508 139.769 307.295C139.846 307.082 139.877 306.856 139.861 306.63Z" fill="#263238"/>
<path d="M143.942 304.372V304.956H143.794C143.581 304.944 143.368 304.981 143.171 305.062C142.973 305.143 142.797 305.266 142.653 305.424C142.51 305.582 142.403 305.77 142.341 305.974C142.279 306.178 142.263 306.393 142.294 306.604V308.871H141.736V304.415H142.311V305.287C142.462 304.99 142.698 304.745 142.988 304.582C143.278 304.419 143.61 304.346 143.942 304.372Z" fill="#263238"/>
<path d="M149.043 302.584V308.871H148.468V307.999C148.288 308.297 148.031 308.54 147.724 308.703C147.417 308.866 147.071 308.942 146.724 308.923C146.123 308.923 145.546 308.685 145.121 308.259C144.696 307.834 144.457 307.258 144.457 306.656C144.457 306.055 144.696 305.478 145.121 305.053C145.546 304.628 146.123 304.389 146.724 304.389C147.057 304.376 147.388 304.449 147.685 304.602C147.981 304.754 148.233 304.982 148.416 305.261V302.584H149.043ZM148.45 306.639C148.433 306.315 148.322 306.003 148.129 305.742C147.937 305.481 147.672 305.283 147.368 305.171C147.063 305.059 146.733 305.039 146.417 305.113C146.101 305.187 145.814 305.352 145.592 305.588C145.369 305.824 145.22 306.12 145.164 306.439C145.108 306.758 145.147 307.087 145.276 307.385C145.405 307.682 145.618 307.935 145.889 308.113C146.161 308.29 146.478 308.384 146.802 308.383C147.029 308.386 147.253 308.342 147.461 308.253C147.67 308.165 147.857 308.034 148.012 307.869C148.167 307.704 148.286 307.509 148.362 307.296C148.437 307.082 148.467 306.856 148.45 306.63V306.639Z" fill="#263238"/>
<path d="M212.368 227.88H212.987V233.277H216.318V233.818H212.368V227.88Z" fill="#263238"/>
<path d="M220.565 231.08V233.844H219.989V233.147C219.823 233.396 219.593 233.597 219.323 233.727C219.053 233.858 218.753 233.913 218.455 233.888C217.443 233.888 216.824 233.356 216.824 232.589C216.824 231.821 217.269 231.324 218.568 231.324H219.981V231.054C219.981 230.295 219.545 229.877 218.716 229.877C218.176 229.869 217.65 230.054 217.234 230.4L216.963 229.955C217.479 229.548 218.121 229.335 218.777 229.353C219.014 229.322 219.255 229.345 219.482 229.419C219.709 229.494 219.916 229.619 220.088 229.785C220.26 229.951 220.392 230.154 220.474 230.378C220.557 230.602 220.588 230.842 220.565 231.08ZM219.963 232.501V231.778H218.568C217.696 231.778 217.417 232.118 217.417 232.571C217.417 233.025 217.836 233.443 218.551 233.443C218.859 233.456 219.163 233.368 219.418 233.194C219.672 233.02 219.864 232.767 219.963 232.475V232.501Z" fill="#263238"/>
<path d="M221.576 233.312L221.847 232.833C222.31 233.161 222.866 233.335 223.434 233.33C224.306 233.33 224.628 233.042 224.628 232.606C224.628 231.446 221.742 232.362 221.742 230.592C221.742 229.868 222.361 229.327 223.486 229.327C224.037 229.317 224.58 229.459 225.056 229.737L224.794 230.225C224.407 229.967 223.951 229.833 223.486 229.842C222.675 229.842 222.326 230.156 222.326 230.583C222.326 231.786 225.213 230.871 225.213 232.589C225.213 233.356 224.532 233.862 223.373 233.862C222.731 233.872 222.102 233.68 221.576 233.312Z" fill="#263238"/>
<path d="M228.683 233.548C228.416 233.76 228.083 233.871 227.741 233.862C227.566 233.881 227.389 233.861 227.222 233.802C227.056 233.744 226.905 233.649 226.78 233.524C226.655 233.399 226.56 233.248 226.502 233.082C226.443 232.915 226.423 232.738 226.442 232.562V229.868H225.64V229.336H226.442V228.359H227.044V229.336H228.395V229.842H227.044V232.501C227.029 232.608 227.038 232.716 227.071 232.818C227.104 232.92 227.159 233.013 227.233 233.091C227.306 233.169 227.397 233.229 227.497 233.268C227.597 233.306 227.704 233.321 227.811 233.312C228.052 233.32 228.288 233.24 228.474 233.086L228.683 233.548Z" fill="#263238"/>
<path d="M236.095 231.228V233.844H235.493V231.315C235.522 231.129 235.508 230.938 235.452 230.758C235.396 230.578 235.299 230.413 235.17 230.276C235.04 230.139 234.881 230.033 234.704 229.967C234.528 229.901 234.338 229.876 234.151 229.894C233.937 229.879 233.724 229.91 233.524 229.987C233.325 230.063 233.144 230.183 232.996 230.337C232.848 230.491 232.736 230.675 232.667 230.878C232.598 231.08 232.575 231.295 232.598 231.507V233.844H231.997V229.336H232.572V230.208C232.751 229.925 233.002 229.695 233.299 229.541C233.597 229.388 233.93 229.317 234.264 229.336C234.513 229.323 234.762 229.363 234.995 229.454C235.227 229.545 235.437 229.685 235.611 229.865C235.784 230.044 235.918 230.259 236.001 230.494C236.085 230.729 236.117 230.98 236.095 231.228Z" fill="#263238"/>
<path d="M241.092 231.08V233.844H240.516V233.147C240.351 233.397 240.121 233.598 239.851 233.728C239.581 233.859 239.28 233.914 238.981 233.888C237.97 233.888 237.351 233.356 237.351 232.589C237.351 231.821 237.796 231.324 239.095 231.324H240.507V231.054C240.507 230.295 240.071 229.877 239.243 229.877C238.702 229.869 238.177 230.054 237.761 230.4L237.49 229.955C238.006 229.549 238.648 229.337 239.304 229.353C239.541 229.322 239.782 229.345 240.009 229.419C240.236 229.494 240.443 229.619 240.615 229.785C240.786 229.951 240.919 230.154 241.001 230.378C241.084 230.602 241.115 230.842 241.092 231.08ZM240.49 232.501V231.778H239.095C238.223 231.778 237.944 232.118 237.944 232.571C237.944 233.025 238.362 233.443 239.077 233.443C239.386 233.456 239.69 233.368 239.945 233.194C240.199 233.02 240.391 232.767 240.49 232.475V232.501Z" fill="#263238"/>
<path d="M250.082 231.228V233.844H249.48V231.315C249.48 230.374 249.009 229.894 248.198 229.894C247.989 229.883 247.78 229.919 247.586 229.998C247.392 230.077 247.217 230.198 247.075 230.352C246.933 230.506 246.826 230.689 246.763 230.889C246.699 231.088 246.68 231.299 246.707 231.507V233.844H246.106V231.315C246.106 230.374 245.635 229.894 244.815 229.894C244.606 229.885 244.398 229.921 244.204 230.001C244.011 230.081 243.837 230.201 243.695 230.355C243.553 230.508 243.447 230.691 243.383 230.89C243.318 231.089 243.298 231.3 243.324 231.507V233.844H242.722V229.336H243.298V230.208C243.466 229.928 243.708 229.699 243.997 229.545C244.286 229.391 244.611 229.319 244.937 229.336C245.266 229.311 245.596 229.387 245.88 229.556C246.164 229.724 246.389 229.977 246.524 230.278C246.702 229.978 246.959 229.731 247.266 229.565C247.573 229.4 247.919 229.32 248.268 229.336C248.519 229.314 248.771 229.349 249.006 229.438C249.241 229.526 249.454 229.667 249.628 229.848C249.802 230.03 249.933 230.248 250.012 230.487C250.09 230.725 250.114 230.979 250.082 231.228Z" fill="#263238"/>
<path d="M255.61 231.778H251.878C251.907 232.213 252.107 232.619 252.433 232.907C252.76 233.196 253.187 233.345 253.622 233.321C253.879 233.331 254.136 233.283 254.372 233.182C254.609 233.081 254.82 232.929 254.991 232.737L255.331 233.129C255.012 233.467 254.6 233.702 254.147 233.806C253.693 233.91 253.22 233.877 252.785 233.712C252.351 233.547 251.975 233.257 251.705 232.879C251.435 232.5 251.283 232.05 251.268 231.586C251.252 231.292 251.297 230.998 251.4 230.722C251.503 230.446 251.662 230.194 251.867 229.982C252.071 229.77 252.317 229.603 252.589 229.49C252.861 229.378 253.153 229.322 253.448 229.327C253.742 229.322 254.033 229.377 254.304 229.49C254.576 229.603 254.82 229.771 255.024 229.983C255.227 230.195 255.384 230.447 255.485 230.723C255.586 230.999 255.629 231.293 255.61 231.586C255.619 231.638 255.61 231.708 255.61 231.778ZM251.878 231.324H255.044C255.014 230.925 254.834 230.551 254.541 230.279C254.247 230.006 253.862 229.855 253.461 229.855C253.06 229.855 252.675 230.006 252.381 230.279C252.088 230.551 251.908 230.925 251.878 231.324Z" fill="#263238"/>
<path d="M100.752 302.078C100.71 301.892 100.684 301.702 100.673 301.511C100.679 301.051 100.571 300.595 100.36 300.186C100.193 299.893 99.9624 299.642 99.6843 299.451C99.4063 299.261 99.0885 299.136 98.7551 299.087C98.3525 299.033 97.943 299.095 97.574 299.265C97.2051 299.435 96.892 299.706 96.671 300.046C96.4787 300.338 96.3646 300.675 96.3396 301.023C96.3396 301.389 96.3396 301.738 96.3396 302.087L96.1304 301.869C97.685 301.86 99.2392 301.93 100.787 302.078C99.2408 302.249 97.6856 302.321 96.1304 302.296H95.9124V302.078C95.9124 301.729 95.9124 301.389 95.9124 300.988C95.9361 300.565 96.0715 300.156 96.3048 299.802C96.5705 299.389 96.9516 299.062 97.4009 298.862C97.8503 298.662 98.3483 298.598 98.8336 298.677C99.2244 298.741 99.5942 298.897 99.9115 299.134C100.229 299.371 100.484 299.681 100.656 300.038C100.88 300.513 100.951 301.047 100.857 301.564C100.822 301.939 100.752 302.104 100.752 302.078Z" fill="#F9C32B"/>
<path d="M99.2435 307.746C99.0798 307.417 98.9399 307.076 98.8249 306.726V306.63L98.9208 306.56C99.0596 306.452 99.154 306.296 99.1861 306.122C99.2182 305.949 99.1859 305.77 99.0952 305.619C99.0497 305.524 98.9825 305.441 98.8992 305.377C98.8159 305.313 98.7187 305.27 98.6155 305.25C98.5122 305.23 98.4058 305.235 98.3049 305.264C98.2039 305.293 98.1111 305.346 98.034 305.417C97.9569 305.488 97.8976 305.577 97.8609 305.675C97.8243 305.774 97.8112 305.879 97.8228 305.984C97.8345 306.088 97.8704 306.189 97.9279 306.277C97.9853 306.365 98.0626 306.438 98.1535 306.491L98.293 306.569L98.2494 306.717L97.9878 307.755L97.8221 307.546C98.3078 307.568 98.7914 307.624 99.2696 307.711C98.7993 307.845 98.3108 307.904 97.8221 307.886H97.6128V307.659C97.6826 307.31 97.7436 306.961 97.8047 306.604L97.9006 306.831C97.7618 306.746 97.6436 306.632 97.5543 306.496C97.4651 306.36 97.4071 306.206 97.3846 306.045C97.3621 305.884 97.3756 305.72 97.4241 305.565C97.4726 305.41 97.5549 305.267 97.6652 305.148C97.7861 305.013 97.939 304.912 98.1098 304.852C98.2805 304.793 98.4635 304.777 98.6418 304.808C98.8056 304.834 98.9613 304.897 99.0972 304.992C99.2331 305.087 99.3457 305.212 99.4266 305.357C99.5581 305.594 99.5925 305.873 99.5225 306.135C99.4526 306.396 99.2838 306.621 99.0516 306.761L99.1214 306.595C99.2335 306.968 99.2749 307.358 99.2435 307.746Z" fill="#F9C32B"/>
<path d="M101.406 302.087C101.533 302.062 101.663 302.062 101.79 302.087C102.106 302.183 102.389 302.366 102.605 302.616C102.821 302.866 102.962 303.173 103.01 303.5C103.01 303.805 103.01 304.101 103.01 304.441C103.01 305.13 103.01 305.889 103.01 306.726C103.01 307.153 103.01 307.598 103.01 308.051C103.044 308.549 103.026 309.049 102.958 309.543C102.882 309.819 102.742 310.075 102.55 310.288C102.357 310.502 102.118 310.667 101.851 310.772C101.574 310.883 101.276 310.931 100.979 310.912H100.107H96.6187H95.6943C95.4264 310.925 95.1588 310.881 94.9092 310.783C94.6595 310.684 94.4336 310.534 94.2465 310.342C94.0593 310.15 93.9151 309.92 93.8234 309.668C93.7318 309.416 93.6948 309.147 93.7149 308.88C93.7149 307.537 93.7149 306.264 93.7149 304.956V304.023C93.6879 303.689 93.7295 303.354 93.837 303.037C93.9549 302.724 94.1546 302.448 94.4152 302.238C94.6759 302.028 94.9881 301.891 95.3194 301.843L95.145 302.043C95.145 301.625 95.145 301.25 95.145 300.823C95.1853 300.413 95.3069 300.016 95.5025 299.654C95.9137 298.959 96.5751 298.447 97.3511 298.224C97.936 298.012 98.5711 297.983 99.1733 298.138C99.7755 298.294 100.317 298.628 100.726 299.096C100.991 299.389 101.195 299.732 101.325 300.105C101.455 300.478 101.509 300.873 101.484 301.267C101.476 301.542 101.45 301.816 101.406 302.087C101.363 301.819 101.345 301.547 101.354 301.276C101.35 300.526 101.059 299.805 100.543 299.262C100.234 298.937 99.8531 298.69 99.4306 298.542C99.008 298.393 98.5563 298.347 98.1126 298.408C97.6688 298.468 97.2458 298.633 96.8784 298.89C96.511 299.146 96.2098 299.485 95.9995 299.881C95.8316 300.201 95.7279 300.55 95.6943 300.91C95.6943 301.267 95.6943 301.703 95.6943 302.104V302.279H95.5199C95.264 302.319 95.0235 302.427 94.8228 302.591C94.6221 302.755 94.4685 302.969 94.3776 303.212C94.2928 303.494 94.2632 303.79 94.2904 304.084V305.017C94.2904 306.281 94.2904 307.633 94.2904 308.941C94.266 309.221 94.3229 309.503 94.4544 309.752C94.5858 310.001 94.7862 310.207 95.0316 310.345C95.2734 310.472 95.5435 310.535 95.8164 310.528H100.246C100.765 310.577 101.288 310.548 101.798 310.441C102.009 310.358 102.197 310.228 102.349 310.06C102.5 309.892 102.61 309.691 102.67 309.473C102.734 309.014 102.757 308.55 102.74 308.086C102.74 307.633 102.74 307.214 102.74 306.761C102.74 305.889 102.74 305.165 102.74 304.476C102.74 304.145 102.74 303.814 102.74 303.552C102.718 303.307 102.637 303.071 102.505 302.863C102.241 302.484 101.852 302.209 101.406 302.087Z" fill="#F9C32B"/>
<path d="M105.217 273.084C105.191 272.861 105.176 272.637 105.173 272.413C105.173 271.942 105.173 271.332 105.112 270.59C105.068 268.986 105.016 266.78 104.946 264.12L105.129 264.303L91.8401 264.478L92.032 264.216V265.384C92.032 265.777 92.032 266.169 92.032 266.562C92.032 267.338 92.032 268.105 92.032 268.855C92.032 270.346 92.032 271.794 92.032 273.154L91.8227 272.953C95.6944 272.953 98.9905 272.953 101.336 272.953H104.092C104.432 272.945 104.773 272.96 105.112 272.997C104.806 273.039 104.497 273.056 104.188 273.049L101.476 273.137C99.1388 273.198 95.7903 273.276 91.8227 273.328H91.6221V273.119C91.6221 271.75 91.6221 270.311 91.5698 268.811C91.5698 268.062 91.5698 267.294 91.5698 266.518C91.5698 266.134 91.5698 265.742 91.5698 265.35V264.172L91.7965 263.937L105.086 263.85H105.269V264.033C105.269 266.736 105.269 268.977 105.269 270.616C105.269 271.34 105.269 271.933 105.269 272.36C105.284 272.603 105.267 272.846 105.217 273.084Z" fill="#F9C32B"/>
<path d="M105.112 264.12C104.554 264.695 103.938 265.209 103.272 265.655C102.104 266.527 100.473 267.774 98.6505 269.09H98.3453L98.2581 269.029L98.0837 268.907L97.7436 268.672L97.0809 268.21L95.8339 267.338L93.7324 265.82C93.0644 265.381 92.4396 264.878 91.8663 264.321C92.5875 264.667 93.2737 265.081 93.9155 265.559L96.0694 266.998L97.3338 267.87L98.0052 268.332L98.3453 268.567L98.511 268.681L98.5982 268.742H98.6418H98.3976C100.22 267.425 101.886 266.248 103.106 265.411C103.735 264.921 104.406 264.489 105.112 264.12Z" fill="#F9C32B"/>
<path d="M92.189 273.206C92.7368 272.141 93.4197 271.15 94.2207 270.259C94.905 269.27 95.7106 268.371 96.6187 267.582C96.0706 268.652 95.3846 269.646 94.5782 270.538C93.8969 271.524 93.0941 272.421 92.189 273.206Z" fill="#F9C32B"/>
<path d="M100.953 267.582C101.832 268.351 102.609 269.23 103.263 270.198C104.038 271.074 104.694 272.047 105.217 273.093C104.336 272.325 103.559 271.446 102.906 270.477C102.13 269.602 101.473 268.629 100.953 267.582Z" fill="#F9C32B"/>
<path d="M267.365 332.659H86.2768C84.9957 332.659 83.9573 333.698 83.9573 334.979V358.654C83.9573 359.935 84.9957 360.973 86.2768 360.973H267.365C268.646 360.973 269.685 359.935 269.685 358.654V334.979C269.685 333.698 268.646 332.659 267.365 332.659Z" fill="#F9C32B"/>
<g opacity="0.3">
<path d="M267.365 332.659H86.2768C84.9957 332.659 83.9573 333.698 83.9573 334.979V358.654C83.9573 359.935 84.9957 360.973 86.2768 360.973H267.365C268.646 360.973 269.685 359.935 269.685 358.654V334.979C269.685 333.698 268.646 332.659 267.365 332.659Z" fill="black"/>
</g>
<path d="M267.365 328.718H86.2768C84.9957 328.718 83.9573 329.756 83.9573 331.037V354.712C83.9573 355.993 84.9957 357.032 86.2768 357.032H267.365C268.646 357.032 269.685 355.993 269.685 354.712V331.037C269.685 329.756 268.646 328.718 267.365 328.718Z" fill="#F9C32B"/>
<path d="M161.138 343.481C161.133 343.072 161.211 342.666 161.368 342.289C161.526 341.911 161.759 341.57 162.053 341.286C162.347 341.002 162.696 340.781 163.078 340.636C163.461 340.492 163.869 340.427 164.277 340.446C164.698 340.43 165.117 340.503 165.507 340.663C165.897 340.822 166.247 341.064 166.536 341.371L165.986 341.902C165.671 341.568 165.263 341.337 164.814 341.237C164.366 341.138 163.898 341.176 163.471 341.345C163.045 341.515 162.679 341.809 162.421 342.189C162.163 342.569 162.025 343.017 162.025 343.476C162.025 343.936 162.163 344.384 162.421 344.764C162.679 345.144 163.045 345.438 163.471 345.608C163.898 345.777 164.366 345.815 164.814 345.715C165.263 345.616 165.671 345.384 165.986 345.05L166.536 345.582C166.247 345.891 165.895 346.135 165.504 346.296C165.112 346.457 164.691 346.532 164.268 346.515C163.861 346.533 163.454 346.468 163.072 346.323C162.691 346.178 162.343 345.956 162.05 345.672C161.756 345.388 161.524 345.047 161.368 344.671C161.211 344.294 161.133 343.889 161.138 343.481Z" fill="#242424"/>
<path d="M171.707 346.446L170.425 344.623H170.059H168.585V346.428H167.713V340.499H170.032C171.567 340.499 172.5 341.275 172.5 342.565C172.52 342.977 172.403 343.384 172.168 343.723C171.934 344.062 171.593 344.314 171.201 344.44L172.605 346.428L171.707 346.446ZM171.707 342.583C171.707 341.711 171.14 341.257 170.059 341.257H168.611V343.926H170.059C171.114 343.926 171.68 343.428 171.68 342.583H171.707Z" fill="#242424"/>
<path d="M178.203 345.713V346.446H173.895V340.516H178.081V341.257H174.741V343.08H177.723V343.795H174.741V345.713H178.203Z" fill="#242424"/>
<path d="M183.357 344.963H180.2L179.546 346.446H178.674L181.36 340.516H182.232L184.926 346.446H184.054L183.357 344.963ZM183.06 344.292L181.778 341.379L180.496 344.292H183.06Z" fill="#242424"/>
<path d="M186.653 341.257H184.621V340.516H189.53V341.257H187.49V346.446H186.618L186.653 341.257Z" fill="#242424"/>
<path d="M194.754 345.713V346.446H190.446V340.516H194.632V341.257H191.292V343.08H194.265V343.795H191.292V345.713H194.754Z" fill="#242424"/>
<path d="M135.788 172.522C159.745 148.565 159.745 109.723 135.788 85.7665C111.832 61.8097 72.9899 61.8097 49.0331 85.7665C25.0763 109.723 25.0763 148.565 49.0331 172.522C72.9899 196.479 111.832 196.479 135.788 172.522Z" fill="#E0E0E0"/>
<path d="M98.1205 130.027C101.575 128.408 104.478 125.821 106.472 122.585C108.466 119.349 109.464 115.606 109.343 111.817C109.186 101.076 100.803 92.5133 90.8572 92.6456C80.9112 92.7779 72.7978 101.655 72.955 112.395C72.9487 116.22 74.0794 119.96 76.2053 123.145C78.3313 126.33 81.3579 128.82 84.9055 130.301C69.6209 132.928 63.2962 143.203 60.6667 152.025C67.3008 159.297 76.3524 163.951 86.1667 165.135L97.3757 164.956C107.284 163.43 116.295 158.36 122.713 150.701C119.822 141.979 113.206 132.008 98.1205 130.027Z" fill="white"/>
<path d="M131.22 196.994C143.447 196.994 153.36 187.081 153.36 174.853C153.36 162.626 143.447 152.713 131.22 152.713C118.992 152.713 109.08 162.626 109.08 174.853C109.08 187.081 118.992 196.994 131.22 196.994Z" fill="#F9C32B"/>
<g opacity="0.3">
<path d="M131.22 196.994C143.447 196.994 153.36 187.081 153.36 174.853C153.36 162.626 143.447 152.713 131.22 152.713C118.992 152.713 109.08 162.626 109.08 174.853C109.08 187.081 118.992 196.994 131.22 196.994Z" fill="black"/>
</g>
<path d="M131.22 192.886C143.447 192.886 153.36 182.974 153.36 170.746C153.36 158.519 143.447 148.606 131.22 148.606C118.992 148.606 109.08 158.519 109.08 170.746C109.08 182.974 118.992 192.886 131.22 192.886Z" fill="#F9C32B"/>
<path d="M131.22 183.844C130.592 183.844 130.077 177.975 130.077 170.764C130.077 163.552 130.592 157.684 131.22 157.684C131.848 157.684 132.353 163.552 132.353 170.764C132.353 177.975 131.839 183.844 131.22 183.844Z" fill="white"/>
<path d="M144.352 170.746C144.352 171.374 138.492 171.88 131.272 171.88C124.052 171.88 118.192 171.374 118.192 170.746C118.192 170.118 124.052 169.613 131.272 169.613C138.492 169.613 144.352 170.118 144.352 170.746Z" fill="white"/>
</svg>
