<svg width="111" height="111" viewBox="0 0 111 111" fill="none" xmlns="http://www.w3.org/2000/svg">
<path d="M111 55.5C111 86.1518 86.1518 111 55.5 111C24.8482 111 0 86.1518 0 55.5C0 24.8482 24.8482 0 55.5 0C86.1518 0 111 24.8482 111 55.5Z" fill="url(#paint0_linear_142_53)"/>
<g filter="url(#filter0_d_142_53)">
<path d="M41.6206 43.9111H27.9111V72H21.6904V43.9111H7.95703V37.6904H41.6206V43.9111Z" fill="url(#paint1_linear_142_53)"/>
<path d="M71.2285 68.8657C71.2285 69.3123 71.1488 69.7271 70.9893 70.1099C70.8298 70.4927 70.6064 70.8276 70.3193 71.1147C70.0322 71.3859 69.6973 71.6012 69.3145 71.7607C68.9316 71.9202 68.5249 72 68.0942 72H54.0737C52.7498 72 51.41 71.8564 50.0542 71.5693C48.6984 71.2822 47.3825 70.8436 46.1064 70.2534C44.8464 69.6473 43.658 68.8817 42.5415 67.9565C41.425 67.0314 40.444 65.9388 39.5986 64.6787C38.7692 63.4027 38.1152 61.9512 37.6367 60.3242C37.1582 58.6813 36.9189 56.855 36.9189 54.8452V37.6904H43.1396V54.8452C43.1396 56.5998 43.3789 58.0832 43.8574 59.2954C44.3519 60.5076 44.974 61.5205 45.7236 62.334C46.4733 63.1475 47.2948 63.7855 48.188 64.248C49.0812 64.7106 49.9266 65.0535 50.7241 65.2769C51.5376 65.5002 52.2474 65.6437 52.8535 65.7075C53.4756 65.7554 53.8823 65.7793 54.0737 65.7793H65.0078V37.6904H71.2285V68.8657Z" fill="url(#paint2_linear_142_53)"/>
<path d="M102.573 72H93.7446L79.748 57.9795H75.3696V51.7109H79.748L93.7446 37.6904H102.573L84.9399 54.8452L102.573 72ZM72.8813 72H66.6606V37.6904H72.8813V72Z" fill="url(#paint3_linear_142_53)"/>
<path fill-rule="evenodd" clip-rule="evenodd" d="M46.2186 41.1829C46.7676 40.5753 47.4106 40.2071 48.1793 40.0601C48.3972 40.0184 49.8323 40.0066 55.0165 40.0037L61.5779 40L61.6861 40.0881C61.7926 40.1748 61.7941 40.1821 61.7775 40.5468C61.7573 40.9909 61.6421 41.2799 61.3695 41.5703C61.2061 41.7443 60.7776 41.997 60.6434 41.9985C60.486 42.0002 60.4764 42.0622 60.5956 42.3083C60.7567 42.641 61.0459 43.4431 61.1891 43.9551C61.548 45.2374 61.6924 46.6699 61.5918 47.9509C61.5663 48.2761 61.5362 48.5743 61.525 48.6136C61.5072 48.6754 61.5183 48.6795 61.6081 48.6441C61.6652 48.6217 61.9411 48.6033 62.2212 48.6033H62.7306V49.4392V50.2751H62.2371C61.7315 50.2751 61.5422 50.2326 61.383 50.0835C61.3442 50.0471 61.3043 50.0257 61.2944 50.036C61.2844 50.0463 61.2151 50.274 61.1404 50.542C60.8595 51.5493 60.3494 52.8809 60.1844 53.0375L60.0877 53.1292H55.5077H50.9277L50.906 52.8336C50.8037 51.4374 49.7944 50.2154 48.455 49.8658C48.1046 49.7744 47.422 49.7534 47.0709 49.8233C46.4569 49.9454 45.9092 50.2371 45.4583 50.6821L45.2848 50.8532V47.0355C45.2848 43.4771 45.2814 42.9784 45.4356 42.5346C45.4646 42.4512 45.4991 42.3698 45.5403 42.2703C45.7345 41.8013 45.9009 41.5346 46.2186 41.1829ZM49.5501 42.6784C49.5869 42.4985 49.8179 42.2142 49.9909 42.1361C50.0823 42.0948 50.5081 42.0823 51.8715 42.0811L53.634 42.0795L53.6239 46.6563L53.6139 51.2332L52.6983 51.2442L51.7827 51.2551V49.8766C51.7827 48.4163 51.7648 48.2348 51.5815 47.8407C51.4598 47.5791 51.2168 47.2854 50.9854 47.1204C50.6532 46.8835 50.3998 46.7998 49.9318 46.7724L49.5183 46.7481V44.7909C49.5183 43.7145 49.5326 42.7639 49.5501 42.6784ZM54.2243 47.217V44.6482V42.0795H55.9768H57.7293V46.6675V51.2555L57.0302 51.2444L56.3312 51.2332L56.3208 49.9216L56.3105 48.6101L56.439 48.5819C56.9818 48.463 57.1645 47.7725 56.7488 47.4103C56.6803 47.3506 56.5582 47.2827 56.4777 47.2596C56.3938 47.2355 55.8809 47.2174 55.2778 47.2172L54.2243 47.217ZM58.32 45.9122V43.9959V42.0795H59.0822H59.8444L60.0042 42.4362C60.4876 43.5151 60.8572 44.7762 60.9422 45.637L60.9694 45.9122H59.6446H58.32ZM58.8453 47.8534C58.7386 47.725 58.744 47.5856 58.8608 47.4515C58.914 47.3903 58.9978 47.3801 59.4484 47.3801C59.9215 47.3801 59.9818 47.3883 60.0527 47.4616C60.1522 47.5647 60.1538 47.7503 60.0562 47.8751C59.984 47.9674 59.9598 47.9713 59.4621 47.9713H58.9432L58.8453 47.8534ZM61.6065 51.0701C61.686 50.801 61.7581 50.5582 61.7668 50.5306C61.7862 50.4684 61.9486 50.497 62.2873 50.6222C63.2058 50.9621 63.8666 51.8392 63.972 52.8587L64 53.1292H62.4207H60.8413L60.9431 52.8948C61.1448 52.4299 61.4649 51.5496 61.6065 51.0701ZM46.8519 54.7966C46.5333 54.6283 46.1626 54.1994 46.0365 53.853L45.9957 53.7408H47.671H49.3464L49.319 53.8326C49.2652 54.0129 49.0844 54.2943 48.9064 54.4748C48.3627 55.0259 47.5322 55.156 46.8519 54.7966ZM59.9589 54.4355C59.785 54.2468 59.5408 53.8537 59.5408 53.7626C59.5408 53.7506 60.2939 53.7408 61.2145 53.7408C62.135 53.7408 62.8882 53.7521 62.8882 53.7657C62.8882 53.7794 62.8306 53.9023 62.7604 54.0387C62.1976 55.132 60.7848 55.3321 59.9589 54.4355Z" fill="url(#paint4_linear_142_53)"/>
<path d="M46.9388 50.4929C45.8988 50.814 45.1391 51.7527 45.0278 52.854L45 53.1292H47.6628H50.3256L50.3249 52.9763C50.3237 52.6939 50.2101 52.2552 50.0532 51.9264C49.7046 51.1958 49.0732 50.6681 48.2991 50.4604C47.9424 50.3646 47.305 50.3799 46.9388 50.4929Z" fill="url(#paint5_linear_142_53)"/>
</g>
<defs>
<filter id="filter0_d_142_53" x="3.95703" y="37.6904" width="102.616" height="42.3096" filterUnits="userSpaceOnUse" color-interpolation-filters="sRGB">
<feFlood flood-opacity="0" result="BackgroundImageFix"/>
<feColorMatrix in="SourceAlpha" type="matrix" values="0 0 0 0 0 0 0 0 0 0 0 0 0 0 0 0 0 0 127 0" result="hardAlpha"/>
<feOffset dy="4"/>
<feGaussianBlur stdDeviation="2"/>
<feComposite in2="hardAlpha" operator="out"/>
<feColorMatrix type="matrix" values="0 0 0 0 0 0 0 0 0 0 0 0 0 0 0 0 0 0 0.25 0"/>
<feBlend mode="normal" in2="BackgroundImageFix" result="effect1_dropShadow_142_53"/>
<feBlend mode="normal" in="SourceGraphic" in2="effect1_dropShadow_142_53" result="shape"/>
</filter>
<linearGradient id="paint0_linear_142_53" x1="55.5" y1="0" x2="55.5" y2="111" gradientUnits="userSpaceOnUse">
<stop offset="0.495" stop-color="#242424"/>
<stop offset="0.495528" stop-color="#F9C32B"/>
</linearGradient>
<linearGradient id="paint1_linear_142_53" x1="25" y1="24" x2="25" y2="83" gradientUnits="userSpaceOnUse">
<stop offset="0.525411" stop-color="#F9C32B"/>
<stop offset="0.52597" stop-color="#242424"/>
</linearGradient>
<linearGradient id="paint2_linear_142_53" x1="54.5" y1="24" x2="54.5" y2="86" gradientUnits="userSpaceOnUse">
<stop offset="0.49729" stop-color="#F9C32B"/>
<stop offset="0.498538" stop-color="#242424"/>
</linearGradient>
<linearGradient id="paint3_linear_142_53" x1="83" y1="24" x2="83" y2="86" gradientUnits="userSpaceOnUse">
<stop offset="0.498151" stop-color="#F9C32B"/>
<stop offset="0.498527" stop-color="#242424"/>
</linearGradient>
<linearGradient id="paint4_linear_142_53" x1="54.5" y1="40" x2="54.5" y2="55" gradientUnits="userSpaceOnUse">
<stop offset="1" stop-color="#F9C32B"/>
</linearGradient>
<linearGradient id="paint5_linear_142_53" x1="54.5" y1="40" x2="54.5" y2="55" gradientUnits="userSpaceOnUse">
<stop offset="1" stop-color="#F9C32B"/>
</linearGradient>
</defs>
</svg>
