<svg width="109" height="96" viewBox="0 0 109 96" fill="none" xmlns="http://www.w3.org/2000/svg">
<rect width="109" height="96" rx="24" fill="url(#paint0_linear_142_54)"/>
<g filter="url(#filter0_d_142_54)">
<path d="M41.6206 38.9111H27.9111V67H21.6904V38.9111H7.95703V32.6904H41.6206V38.9111Z" fill="url(#paint1_linear_142_54)"/>
<path d="M71.2285 63.8657C71.2285 64.3123 71.1488 64.7271 70.9893 65.1099C70.8298 65.4927 70.6064 65.8276 70.3193 66.1147C70.0322 66.3859 69.6973 66.6012 69.3145 66.7607C68.9316 66.9202 68.5249 67 68.0942 67H54.0737C52.7498 67 51.41 66.8564 50.0542 66.5693C48.6984 66.2822 47.3825 65.8436 46.1064 65.2534C44.8464 64.6473 43.658 63.8817 42.5415 62.9565C41.425 62.0314 40.444 60.9388 39.5986 59.6787C38.7692 58.4027 38.1152 56.9512 37.6367 55.3242C37.1582 53.6813 36.9189 51.855 36.9189 49.8452V32.6904H43.1396V49.8452C43.1396 51.5998 43.3789 53.0832 43.8574 54.2954C44.3519 55.5076 44.974 56.5205 45.7236 57.334C46.4733 58.1475 47.2948 58.7855 48.188 59.248C49.0812 59.7106 49.9266 60.0535 50.7241 60.2769C51.5376 60.5002 52.2474 60.6437 52.8535 60.7075C53.4756 60.7554 53.8823 60.7793 54.0737 60.7793H65.0078V32.6904H71.2285V63.8657Z" fill="url(#paint2_linear_142_54)"/>
<path d="M102.573 67H93.7446L79.748 52.9795H75.3696V46.7109H79.748L93.7446 32.6904H102.573L84.9399 49.8452L102.573 67ZM72.8813 67H66.6606V32.6904H72.8813V67Z" fill="url(#paint3_linear_142_54)"/>
<path fill-rule="evenodd" clip-rule="evenodd" d="M46.2186 36.1829C46.7676 35.5753 47.4106 35.2071 48.1793 35.0601C48.3972 35.0184 49.8323 35.0066 55.0165 35.0037L61.5779 35L61.6861 35.0881C61.7926 35.1748 61.7941 35.1821 61.7775 35.5468C61.7573 35.9909 61.6421 36.2799 61.3695 36.5703C61.2061 36.7443 60.7776 36.997 60.6434 36.9985C60.486 37.0002 60.4764 37.0622 60.5956 37.3083C60.7567 37.641 61.0459 38.4431 61.1891 38.9551C61.548 40.2374 61.6924 41.6699 61.5918 42.9509C61.5663 43.2761 61.5362 43.5743 61.525 43.6136C61.5072 43.6754 61.5183 43.6795 61.6081 43.6441C61.6652 43.6217 61.9411 43.6033 62.2212 43.6033H62.7306V44.4392V45.2751H62.2371C61.7315 45.2751 61.5422 45.2326 61.383 45.0835C61.3442 45.0471 61.3043 45.0257 61.2944 45.036C61.2844 45.0463 61.2151 45.274 61.1404 45.542C60.8595 46.5493 60.3494 47.8809 60.1844 48.0375L60.0877 48.1292H55.5077H50.9277L50.906 47.8336C50.8037 46.4374 49.7944 45.2154 48.455 44.8658C48.1046 44.7744 47.422 44.7534 47.0709 44.8233C46.4569 44.9454 45.9092 45.2371 45.4583 45.6821L45.2848 45.8532V42.0355C45.2848 38.4771 45.2814 37.9784 45.4356 37.5346C45.4646 37.4512 45.4991 37.3698 45.5403 37.2703C45.7345 36.8013 45.9009 36.5346 46.2186 36.1829ZM49.5501 37.6784C49.5869 37.4985 49.8179 37.2142 49.9909 37.1361C50.0823 37.0948 50.5081 37.0823 51.8715 37.0811L53.634 37.0795L53.6239 41.6563L53.6139 46.2332L52.6983 46.2442L51.7827 46.2551V44.8766C51.7827 43.4163 51.7648 43.2348 51.5815 42.8407C51.4598 42.5791 51.2168 42.2854 50.9854 42.1204C50.6532 41.8835 50.3998 41.7998 49.9318 41.7724L49.5183 41.7481V39.7909C49.5183 38.7145 49.5326 37.7639 49.5501 37.6784ZM54.2243 42.217V39.6482V37.0795H55.9768H57.7293V41.6675V46.2555L57.0302 46.2444L56.3312 46.2332L56.3208 44.9216L56.3105 43.6101L56.439 43.5819C56.9818 43.463 57.1645 42.7725 56.7488 42.4103C56.6803 42.3506 56.5582 42.2827 56.4777 42.2596C56.3938 42.2355 55.8809 42.2174 55.2778 42.2172L54.2243 42.217ZM58.32 40.9122V38.9959V37.0795H59.0822H59.8444L60.0042 37.4362C60.4876 38.5151 60.8572 39.7762 60.9422 40.637L60.9694 40.9122H59.6446H58.32ZM58.8453 42.8534C58.7386 42.725 58.744 42.5856 58.8608 42.4515C58.914 42.3903 58.9978 42.3801 59.4484 42.3801C59.9215 42.3801 59.9818 42.3883 60.0527 42.4616C60.1522 42.5647 60.1538 42.7503 60.0562 42.8751C59.984 42.9674 59.9598 42.9713 59.4621 42.9713H58.9432L58.8453 42.8534ZM61.6065 46.0701C61.686 45.801 61.7581 45.5582 61.7668 45.5306C61.7862 45.4684 61.9486 45.497 62.2873 45.6222C63.2058 45.9621 63.8666 46.8392 63.972 47.8587L64 48.1292H62.4207H60.8413L60.9431 47.8948C61.1448 47.4299 61.4649 46.5496 61.6065 46.0701ZM46.8519 49.7966C46.5333 49.6283 46.1626 49.1994 46.0365 48.853L45.9957 48.7408H47.671H49.3464L49.319 48.8326C49.2652 49.0129 49.0844 49.2943 48.9064 49.4748C48.3627 50.0259 47.5322 50.156 46.8519 49.7966ZM59.9589 49.4355C59.785 49.2468 59.5408 48.8537 59.5408 48.7626C59.5408 48.7506 60.2939 48.7408 61.2145 48.7408C62.135 48.7408 62.8882 48.7521 62.8882 48.7657C62.8882 48.7794 62.8306 48.9023 62.7604 49.0387C62.1976 50.132 60.7848 50.3321 59.9589 49.4355Z" fill="url(#paint4_linear_142_54)"/>
<path d="M46.9388 45.4929C45.8988 45.814 45.1391 46.7527 45.0278 47.854L45 48.1292H47.6628H50.3256L50.3249 47.9763C50.3237 47.6939 50.2101 47.2552 50.0532 46.9264C49.7046 46.1958 49.0732 45.6681 48.2991 45.4604C47.9424 45.3646 47.305 45.3799 46.9388 45.4929Z" fill="url(#paint5_linear_142_54)"/>
</g>
<defs>
<filter id="filter0_d_142_54" x="3.95703" y="32.6904" width="102.616" height="42.3096" filterUnits="userSpaceOnUse" color-interpolation-filters="sRGB">
<feFlood flood-opacity="0" result="BackgroundImageFix"/>
<feColorMatrix in="SourceAlpha" type="matrix" values="0 0 0 0 0 0 0 0 0 0 0 0 0 0 0 0 0 0 127 0" result="hardAlpha"/>
<feOffset dy="4"/>
<feGaussianBlur stdDeviation="2"/>
<feComposite in2="hardAlpha" operator="out"/>
<feColorMatrix type="matrix" values="0 0 0 0 0 0 0 0 0 0 0 0 0 0 0 0 0 0 0.25 0"/>
<feBlend mode="normal" in2="BackgroundImageFix" result="effect1_dropShadow_142_54"/>
<feBlend mode="normal" in="SourceGraphic" in2="effect1_dropShadow_142_54" result="shape"/>
</filter>
<linearGradient id="paint0_linear_142_54" x1="54.5" y1="0" x2="54.5" y2="96" gradientUnits="userSpaceOnUse">
<stop offset="0.519546" stop-color="#242424"/>
<stop offset="0.521025" stop-color="#F9C32B"/>
</linearGradient>
<linearGradient id="paint1_linear_142_54" x1="25" y1="19" x2="25" y2="78" gradientUnits="userSpaceOnUse">
<stop offset="0.525411" stop-color="#F9C32B"/>
<stop offset="0.52597" stop-color="#242424"/>
</linearGradient>
<linearGradient id="paint2_linear_142_54" x1="54.5" y1="19" x2="54.5" y2="81" gradientUnits="userSpaceOnUse">
<stop offset="0.49729" stop-color="#F9C32B"/>
<stop offset="0.498538" stop-color="#242424"/>
</linearGradient>
<linearGradient id="paint3_linear_142_54" x1="83" y1="19" x2="83" y2="81" gradientUnits="userSpaceOnUse">
<stop offset="0.498151" stop-color="#F9C32B"/>
<stop offset="0.498527" stop-color="#242424"/>
</linearGradient>
<linearGradient id="paint4_linear_142_54" x1="54.5" y1="35" x2="54.5" y2="50" gradientUnits="userSpaceOnUse">
<stop offset="1" stop-color="#F9C32B"/>
</linearGradient>
<linearGradient id="paint5_linear_142_54" x1="54.5" y1="35" x2="54.5" y2="50" gradientUnits="userSpaceOnUse">
<stop offset="1" stop-color="#F9C32B"/>
</linearGradient>
</defs>
</svg>
