<svg width="109" height="98" viewBox="0 0 109 98" fill="none" xmlns="http://www.w3.org/2000/svg">
<rect width="109" height="98" fill="#F5F5F5"/>
<path d="M-239 -309C-239 -310.105 -238.105 -311 -237 -311H376C377.105 -311 378 -310.105 378 -309V109C378 110.105 377.105 111 376 111H-237C-238.105 111 -239 110.105 -239 109V-309Z" fill="#FDFDFD"/>
<path d="M-237 -310H376V-312H-237V-310ZM377 -309V109H379V-309H377ZM376 110H-237V112H376V110ZM-238 109V-309H-240V109H-238ZM-237 110C-237.552 110 -238 109.552 -238 109H-240C-240 110.657 -238.657 112 -237 112V110ZM377 109C377 109.552 376.552 110 376 110V112C377.657 112 379 110.657 379 109H377ZM376 -310C376.552 -310 377 -309.552 377 -309H379C379 -310.657 377.657 -312 376 -312V-310ZM-237 -312C-238.657 -312 -240 -310.657 -240 -309H-238C-238 -309.552 -237.552 -310 -237 -310V-312Z" fill="black" fill-opacity="0.1"/>
<g filter="url(#filter0_d_0_1)">
<path d="M38.6206 19.9111H24.9111V48H18.6904V19.9111H4.95703V13.6904H38.6206V19.9111Z" fill="url(#paint0_linear_0_1)"/>
<path d="M68.2285 44.8657C68.2285 45.3123 68.1488 45.7271 67.9893 46.1099C67.8298 46.4927 67.6064 46.8276 67.3193 47.1147C67.0322 47.3859 66.6973 47.6012 66.3145 47.7607C65.9316 47.9202 65.5249 48 65.0942 48H51.0737C49.7498 48 48.41 47.8564 47.0542 47.5693C45.6984 47.2822 44.3825 46.8436 43.1064 46.2534C41.8464 45.6473 40.658 44.8817 39.5415 43.9565C38.425 43.0314 37.444 41.9388 36.5986 40.6787C35.7692 39.4027 35.1152 37.9512 34.6367 36.3242C34.1582 34.6813 33.9189 32.855 33.9189 30.8452V13.6904H40.1396V30.8452C40.1396 32.5998 40.3789 34.0832 40.8574 35.2954C41.3519 36.5076 41.974 37.5205 42.7236 38.334C43.4733 39.1475 44.2948 39.7855 45.188 40.248C46.0812 40.7106 46.9266 41.0535 47.7241 41.2769C48.5376 41.5002 49.2474 41.6437 49.8535 41.7075C50.4756 41.7554 50.8823 41.7793 51.0737 41.7793H62.0078V13.6904H68.2285V44.8657Z" fill="url(#paint1_linear_0_1)"/>
<path d="M99.5732 48H90.7446L76.748 33.9795H72.3696V27.7109H76.748L90.7446 13.6904H99.5732L81.9399 30.8452L99.5732 48ZM69.8813 48H63.6606V13.6904H69.8813V48Z" fill="url(#paint2_linear_0_1)"/>
</g>
<g filter="url(#filter1_d_0_1)">
<path fill-rule="evenodd" clip-rule="evenodd" d="M43.2186 17.1829C43.7676 16.5753 44.4106 16.2071 45.1793 16.0601C45.3972 16.0184 46.8323 16.0066 52.0165 16.0037L58.5779 16L58.6861 16.0881C58.7926 16.1748 58.7941 16.1821 58.7775 16.5468C58.7573 16.9909 58.6421 17.2799 58.3695 17.5703C58.2061 17.7443 57.7776 17.997 57.6434 17.9985C57.486 18.0002 57.4764 18.0622 57.5956 18.3083C57.7567 18.641 58.0459 19.4431 58.1891 19.9551C58.548 21.2374 58.6924 22.6699 58.5918 23.9509C58.5663 24.2761 58.5362 24.5743 58.525 24.6136C58.5072 24.6754 58.5183 24.6795 58.6081 24.6441C58.6652 24.6217 58.9411 24.6033 59.2212 24.6033H59.7306V25.4392V26.2751H59.2371C58.7315 26.2751 58.5422 26.2326 58.383 26.0835C58.3442 26.0471 58.3043 26.0257 58.2944 26.036C58.2844 26.0463 58.2151 26.274 58.1404 26.542C57.8595 27.5493 57.3494 28.8809 57.1844 29.0375L57.0877 29.1292H52.5077H47.9277L47.906 28.8336C47.8037 27.4374 46.7944 26.2154 45.455 25.8658C45.1046 25.7744 44.422 25.7534 44.0709 25.8233C43.4569 25.9454 42.9092 26.2371 42.4583 26.6821L42.2848 26.8532V23.0355C42.2848 19.4771 42.2814 18.9784 42.4356 18.5346C42.4646 18.4512 42.4991 18.3698 42.5403 18.2703C42.7345 17.8013 42.9009 17.5346 43.2186 17.1829ZM46.5501 18.6784C46.5869 18.4985 46.8179 18.2142 46.9909 18.1361C47.0823 18.0948 47.5081 18.0823 48.8715 18.0811L50.634 18.0795L50.6239 22.6563L50.6139 27.2332L49.6983 27.2442L48.7827 27.2551V25.8766C48.7827 24.4163 48.7648 24.2348 48.5815 23.8407C48.4598 23.5791 48.2168 23.2854 47.9854 23.1204C47.6532 22.8835 47.3998 22.7998 46.9318 22.7724L46.5183 22.7481V20.7909C46.5183 19.7145 46.5326 18.7639 46.5501 18.6784ZM51.2243 23.217V20.6482V18.0795H52.9768H54.7293V22.6675V27.2555L54.0302 27.2444L53.3312 27.2332L53.3208 25.9216L53.3105 24.61L53.439 24.5819C53.9818 24.463 54.1645 23.7725 53.7488 23.4103C53.6803 23.3506 53.5582 23.2827 53.4777 23.2596C53.3938 23.2355 52.8809 23.2174 52.2778 23.2172L51.2243 23.217ZM55.32 21.9122V19.9959V18.0795H56.0822H56.8444L57.0042 18.4362C57.4876 19.5151 57.8572 20.7762 57.9422 21.637L57.9694 21.9122H56.6446H55.32ZM55.8453 23.8534C55.7386 23.725 55.744 23.5856 55.8608 23.4515C55.914 23.3903 55.9978 23.3801 56.4484 23.3801C56.9215 23.3801 56.9818 23.3883 57.0527 23.4616C57.1522 23.5647 57.1538 23.7503 57.0562 23.8751C56.984 23.9674 56.9598 23.9713 56.4621 23.9713H55.9432L55.8453 23.8534ZM58.6065 27.0701C58.686 26.801 58.7581 26.5582 58.7668 26.5306C58.7862 26.4684 58.9486 26.497 59.2873 26.6222C60.2058 26.9621 60.8666 27.8392 60.972 28.8587L61 29.1292H59.4207H57.8413L57.9431 28.8948C58.1448 28.4299 58.4649 27.5496 58.6065 27.0701ZM43.8519 30.7966C43.5333 30.6283 43.1626 30.1994 43.0365 29.853L42.9957 29.7408H44.671H46.3464L46.319 29.8326C46.2652 30.0129 46.0844 30.2943 45.9064 30.4748C45.3627 31.0259 44.5322 31.156 43.8519 30.7966ZM56.9589 30.4355C56.785 30.2468 56.5408 29.8537 56.5408 29.7626C56.5408 29.7506 57.2939 29.7408 58.2145 29.7408C59.135 29.7408 59.8882 29.7521 59.8882 29.7657C59.8882 29.7794 59.8306 29.9023 59.7604 30.0387C59.1976 31.132 57.7848 31.3321 56.9589 30.4355Z" fill="#242424"/>
<path d="M43.9388 26.4929C42.8988 26.814 42.1391 27.7527 42.0278 28.854L42 29.1292H44.6628H47.3256L47.3249 28.9763C47.3237 28.6939 47.2101 28.2552 47.0532 27.9264C46.7046 27.1958 46.0732 26.6681 45.2991 26.4604C44.9424 26.3646 44.305 26.3799 43.9388 26.4929Z" fill="#242424"/>
</g>
<g filter="url(#filter2_d_0_1)">
<path d="M78.623 69.3516C78.623 71.4837 78.2487 73.445 77.5 75.2354C76.7676 77.0257 75.7503 78.5719 74.4482 79.874C73.1462 81.1598 71.5999 82.1689 69.8096 82.9014C68.0192 83.6338 66.0742 84 63.9746 84H46.8359C46.3802 84 45.957 83.9186 45.5664 83.7559C45.1758 83.5931 44.834 83.3734 44.541 83.0967C44.2643 82.8037 44.0446 82.4619 43.8818 82.0713C43.7191 81.6807 43.6377 81.2575 43.6377 80.8018V52.1885C43.6377 51.749 43.7191 51.334 43.8818 50.9434C44.0446 50.5527 44.2643 50.2109 44.541 49.918C44.834 49.625 45.1758 49.3971 45.5664 49.2344C45.957 49.0716 46.3802 48.9902 46.8359 48.9902H63.9746C66.0742 48.9902 68.0192 49.3564 69.8096 50.0889C71.5999 50.8213 73.1462 51.8385 74.4482 53.1406C75.7503 54.4264 76.7676 55.9727 77.5 57.7793C78.2487 59.5697 78.623 61.5228 78.623 63.6387V69.3516ZM72.2754 63.6387C72.2754 62.4017 72.0719 61.2705 71.665 60.2451C71.2744 59.2197 70.7129 58.349 69.9805 57.6328C69.248 56.9004 68.3691 56.3389 67.3438 55.9482C66.3346 55.5413 65.2116 55.3379 63.9746 55.3379H49.9854V77.6523H63.9746C65.2116 77.6523 66.3346 77.457 67.3438 77.0664C68.3691 76.6595 69.248 76.098 69.9805 75.3818C70.7129 74.6494 71.2744 73.7786 71.665 72.7695C72.0719 71.7441 72.2754 70.6048 72.2754 69.3516V63.6387Z" fill="url(#paint3_linear_0_1)"/>
<path d="M101.471 69.6934H81.4268V63.2969H101.471V69.6934ZM104.327 84H81.4268C80.5479 84 79.5876 83.8454 78.5459 83.5361C77.5042 83.2269 76.5358 82.7223 75.6406 82.0225C74.7617 81.3063 74.0212 80.3867 73.4189 79.2637C72.833 78.1243 72.54 76.7327 72.54 75.0889V52.1885C72.54 51.749 72.6214 51.334 72.7842 50.9434C72.9469 50.5527 73.1667 50.2109 73.4434 49.918C73.7363 49.625 74.0781 49.3971 74.4688 49.2344C74.8594 49.0716 75.2826 48.9902 75.7383 48.9902H104.327V55.3379H78.8877V75.0889C78.8877 75.9189 79.1074 76.5537 79.5469 76.9932C79.9863 77.4326 80.6292 77.6523 81.4756 77.6523H104.327V84Z" fill="url(#paint4_linear_0_1)"/>
<path d="M39.6719 60.7578C39.6719 62.2064 39.4928 63.5003 39.1348 64.6396C38.7767 65.779 38.2884 66.7881 37.6699 67.667C37.0677 68.5296 36.3678 69.2702 35.5703 69.8887C34.7728 70.5072 33.9346 71.0199 33.0557 71.4268C32.193 71.8174 31.3141 72.1022 30.4189 72.2812C29.54 72.4603 28.71 72.5498 27.9287 72.5498L41.1855 84H31.3711L18.1387 72.5498H13.5732V66.2021H27.9287C28.7262 66.137 29.4505 65.9743 30.1016 65.7139C30.7689 65.4372 31.3385 65.071 31.8105 64.6152C32.2988 64.1595 32.6732 63.6143 32.9336 62.9795C33.194 62.3285 33.3242 61.5879 33.3242 60.7578V56.7539C33.3242 56.3958 33.2754 56.1273 33.1777 55.9482C33.0964 55.7529 32.9824 55.6146 32.8359 55.5332C32.7057 55.4355 32.5592 55.3786 32.3965 55.3623C32.25 55.346 32.1117 55.3379 31.9814 55.3379H11.0342V84H4.68652V52.1885C4.68652 51.749 4.7679 51.334 4.93066 50.9434C5.09342 50.5527 5.31315 50.2109 5.58984 49.918C5.88281 49.625 6.22461 49.3971 6.61523 49.2344C7.00586 49.0716 7.42904 48.9902 7.88477 48.9902H31.9814C33.3975 48.9902 34.5938 49.2507 35.5703 49.7715C36.5469 50.276 37.3363 50.9189 37.9385 51.7002C38.557 52.4652 38.9964 53.2952 39.2568 54.1904C39.5335 55.0856 39.6719 55.9238 39.6719 56.7051V60.7578Z" fill="url(#paint5_linear_0_1)"/>
<path d="M37 51C37 49.8954 37.8954 49 39 49H42C43.1046 49 44 49.8954 44 51V82C44 83.1046 43.1046 84 42 84H39C37.8954 84 37 83.1046 37 82V51Z" fill="url(#paint6_linear_0_1)"/>
<path d="M40 51.1212H41V53.8659H40V51.1212Z" fill="#242424"/>
<path d="M40 56.6106H41V59.3554H40V56.6106Z" fill="#242424"/>
<path d="M40 62.1001H41V64.8448H40V62.1001Z" fill="#242424"/>
<path d="M40 69.2479H41V71.9545H40V69.2479Z" fill="#F9C32B"/>
<path d="M40 73.759H41V76.4656H40V73.759Z" fill="#F9C32B"/>
<path d="M40 79.1722H41V81.8788H40V79.1722Z" fill="#F9C32B"/>
<path d="M63.5821 69.0121L61.4694 71.9073C61.358 72.06 61.2122 72.1841 61.0437 72.2697C60.8753 72.3553 60.689 72.4 60.5001 72.4C60.3111 72.4 60.1249 72.3553 59.9564 72.2697C59.788 72.1841 59.6422 72.06 59.5308 71.9073L57.418 69.0121C54.8136 69.3884 53 70.2262 53 71.2C53 72.5255 56.3579 73.6 60.5 73.6C64.6421 73.6 68 72.5255 68 71.2C68 70.2262 66.1865 69.3885 63.5821 69.0121Z" fill="#F9C32B"/>
<path d="M60.5 71.2L64.4544 65.781C64.9871 65.051 65.3073 64.1878 65.3796 63.287C65.4519 62.3863 65.2735 61.483 64.8641 60.6774C64.4546 59.8718 63.8302 59.1953 63.0599 58.7227C62.2897 58.2501 61.4036 58 60.5 58C59.5963 58 58.7102 58.2501 57.94 58.7227C57.1697 59.1953 56.5453 59.8718 56.1359 60.6774C55.7264 61.483 55.548 62.3863 55.6203 63.287C55.6926 64.1878 56.0128 65.051 56.5455 65.781L60.5 71.2ZM60.5 60.7226C60.9297 60.7226 61.3498 60.85 61.7071 61.0887C62.0645 61.3275 62.343 61.6669 62.5074 62.0639C62.6719 62.4609 62.7149 62.8978 62.6311 63.3193C62.5472 63.7408 62.3403 64.128 62.0364 64.4319C61.7325 64.7357 61.3454 64.9427 60.9239 65.0265C60.5024 65.1104 60.0655 65.0673 59.6684 64.9029C59.2714 64.7384 58.9321 64.4599 58.6933 64.1026C58.4545 63.7453 58.3271 63.3252 58.3271 62.8954C58.3271 62.3191 58.556 61.7665 58.9635 61.359C59.371 60.9515 59.9237 60.7226 60.5 60.7226Z" fill="#242424"/>
</g>
<defs>
<filter id="filter0_d_0_1" x="0.957031" y="13.6904" width="102.616" height="42.3096" filterUnits="userSpaceOnUse" color-interpolation-filters="sRGB">
<feFlood flood-opacity="0" result="BackgroundImageFix"/>
<feColorMatrix in="SourceAlpha" type="matrix" values="0 0 0 0 0 0 0 0 0 0 0 0 0 0 0 0 0 0 127 0" result="hardAlpha"/>
<feOffset dy="4"/>
<feGaussianBlur stdDeviation="2"/>
<feComposite in2="hardAlpha" operator="out"/>
<feColorMatrix type="matrix" values="0 0 0 0 0 0 0 0 0 0 0 0 0 0 0 0 0 0 0.25 0"/>
<feBlend mode="normal" in2="BackgroundImageFix" result="effect1_dropShadow_0_1"/>
<feBlend mode="normal" in="SourceGraphic" in2="effect1_dropShadow_0_1" result="shape"/>
</filter>
<filter id="filter1_d_0_1" x="38" y="16" width="27" height="23" filterUnits="userSpaceOnUse" color-interpolation-filters="sRGB">
<feFlood flood-opacity="0" result="BackgroundImageFix"/>
<feColorMatrix in="SourceAlpha" type="matrix" values="0 0 0 0 0 0 0 0 0 0 0 0 0 0 0 0 0 0 127 0" result="hardAlpha"/>
<feOffset dy="4"/>
<feGaussianBlur stdDeviation="2"/>
<feComposite in2="hardAlpha" operator="out"/>
<feColorMatrix type="matrix" values="0 0 0 0 0 0 0 0 0 0 0 0 0 0 0 0 0 0 0.25 0"/>
<feBlend mode="normal" in2="BackgroundImageFix" result="effect1_dropShadow_0_1"/>
<feBlend mode="normal" in="SourceGraphic" in2="effect1_dropShadow_0_1" result="shape"/>
</filter>
<filter id="filter2_d_0_1" x="0.686523" y="48.9902" width="107.641" height="43.0098" filterUnits="userSpaceOnUse" color-interpolation-filters="sRGB">
<feFlood flood-opacity="0" result="BackgroundImageFix"/>
<feColorMatrix in="SourceAlpha" type="matrix" values="0 0 0 0 0 0 0 0 0 0 0 0 0 0 0 0 0 0 127 0" result="hardAlpha"/>
<feOffset dy="4"/>
<feGaussianBlur stdDeviation="2"/>
<feComposite in2="hardAlpha" operator="out"/>
<feColorMatrix type="matrix" values="0 0 0 0 0 0 0 0 0 0 0 0 0 0 0 0 0 0 0.25 0"/>
<feBlend mode="normal" in2="BackgroundImageFix" result="effect1_dropShadow_0_1"/>
<feBlend mode="normal" in="SourceGraphic" in2="effect1_dropShadow_0_1" result="shape"/>
</filter>
<linearGradient id="paint0_linear_0_1" x1="22" y1="0" x2="22" y2="59" gradientUnits="userSpaceOnUse">
<stop offset="0.525411" stop-color="#F9C32B"/>
<stop offset="0.52597" stop-color="#242424"/>
</linearGradient>
<linearGradient id="paint1_linear_0_1" x1="51.5" y1="0" x2="51.5" y2="62" gradientUnits="userSpaceOnUse">
<stop offset="0.49729" stop-color="#F9C32B"/>
<stop offset="0.498538" stop-color="#242424"/>
</linearGradient>
<linearGradient id="paint2_linear_0_1" x1="80" y1="0" x2="80" y2="62" gradientUnits="userSpaceOnUse">
<stop offset="0.498151" stop-color="#F9C32B"/>
<stop offset="0.498527" stop-color="#242424"/>
</linearGradient>
<linearGradient id="paint3_linear_0_1" x1="60" y1="34" x2="60" y2="93" gradientUnits="userSpaceOnUse">
<stop offset="0.549409" stop-color="#F9C32B"/>
<stop offset="0.551036" stop-color="#242424"/>
</linearGradient>
<linearGradient id="paint4_linear_0_1" x1="88" y1="34" x2="88" y2="98" gradientUnits="userSpaceOnUse">
<stop offset="0.506606" stop-color="#F9C32B"/>
<stop offset="0.506606" stop-color="#242424"/>
</linearGradient>
<linearGradient id="paint5_linear_0_1" x1="20.5" y1="34" x2="20.5" y2="98" gradientUnits="userSpaceOnUse">
<stop offset="0.508991" stop-color="#F9C32B"/>
<stop offset="0.508991" stop-color="#242424"/>
</linearGradient>
<linearGradient id="paint6_linear_0_1" x1="40.5" y1="49.5303" x2="40.5" y2="84.5303" gradientUnits="userSpaceOnUse">
<stop offset="0.484702" stop-color="#F9C32B"/>
<stop offset="0.486302" stop-color="#242424"/>
</linearGradient>
</defs>
</svg>
