<?xml version="1.0" encoding="UTF-8"?>
<svg version="1.1" viewBox="0 0 1600 1600" width="1280" height="1280" xmlns="http://www.w3.org/2000/svg">
<path transform="translate(360 225)" d="m0 0c1.75-0.00166 3.51-0.00374 5.26-0.00622 4.77-0.0055 9.55-0.00491 14.3-0.00322 5.21 7.37e-4 10.4-0.00431 15.6-0.00858 10.3-0.00755 20.6-0.00977 30.9-0.0103 12.4-9.17e-4 24.7-0.00759 37.1-0.0143 29.2-0.0156 58.3-0.0217 87.5-0.0264 14.8-0.00239 29.7-0.00609 44.5-0.01 47.6-0.0127 95.2-0.0234 143-0.0268 2.27-1.62e-4 4.54-3.28e-4 6.82-4.94e-4 4.56-3.34e-4 9.11-6.64e-4 13.7-9.95e-4 5.33-3.87e-4 10.7-7.77e-4 16-0.00117 1.53-1.12e-4 3.05-2.24e-4 4.58-3.34e-4 49.1-0.00355 98.2-0.0186 147-0.0419 35.3-0.0167 70.6-0.0322 106-0.0367 1.09-1.4e-4 1.09-1.4e-4 2.2-2.83e-4 15.9-0.00202 31.9-0.00318 47.8-0.00353 5.7-1.36e-4 11.4-3.45e-4 17.1-5.93e-4 1.42-6.16e-5 2.84-1.2e-4 4.25-1.75e-4 22.6-9.2e-4 45.2-0.0109 67.8-0.0255 23.4-0.015 46.7-0.0192 70.1-0.0109 13.5 0.00447 27 5.57e-4 40.4-0.0152 8.99-0.00972 18-0.0086 27 0.00144 5.13 0.00541 10.3 0.00603 15.4-0.00651 4.66-0.0113 9.33-0.00885 14 0.00467 1.68 0.00244 3.36-1.67e-4 5.04-0.0084 20.3-0.0928 20.3-0.0928 27.8 6.45 0.615 0.507 1.23 1.01 1.86 1.54 5.62 7.41 6.46 15.3 6.26 24.3-0.0139 1.09-0.0279 2.18-0.0422 3.31-0.712 31.7-11.4 59.8-32.4 83.8-0.652 0.749-1.3 1.5-1.98 2.27-17.9 19.2-44.3 31-70 34.7 1.48 4.84 3.52 9.28 5.75 13.8 36.1 75 60.7 156 84.2 393-0.0126 1.27-0.0251 2.54-0.0381 3.85-0.227 16.9-1.45 33.7-2.84 50.6-0.0811 1-0.162 2-0.246 3.03-1.2 14.6-2.86 29-4.88 43.5 0.947-0.29 0.947-0.29 1.91-0.586 13.2-3.86 26.2-4.71 39.9-4.64 1.57 0.0012 3.14 0.00164 4.71 0.00139 3.25 0.00155 6.51 0.00972 9.76 0.0233 4.18 0.0172 8.36 0.0208 12.5 0.0201 3.22 2.71e-4 6.45 0.00574 9.67 0.013 1.54 0.00318 3.09 0.00515 4.63 0.00589 2.14 0.00216 4.28 0.0109 6.42 0.0216 1.22 0.00381 2.43 0.00762 3.69 0.0116 2.72 0.134 2.72 0.134 3.72 1.13 0.0961 1.63 0.122 3.27 0.12 4.9 0.00206 1.59 0.00206 1.59 0.00417 3.22-0.0036 1.17-0.00719 2.35-0.0109 3.56 1.46e-4 1.23 2.92e-4 2.46 4.43e-4 3.72-5.79e-4 3.38-0.00561 6.76-0.0126 10.1-0.00623 3.53-0.00684 7.06-0.00803 10.6-0.00311 6.69-0.0113 13.4-0.0213 20.1-0.0112 7.61-0.0167 15.2-0.0217 22.8-0.0105 15.7-0.0281 31.3-0.0503 47-2.8 1.4-5.1 1.13-8.23 1.15-1.31 0.00638-2.63 0.0128-3.98 0.0193-1.44 0.00153-2.89 0.00264-4.33 0.00337-1.49 0.00322-2.97 0.00658-4.46 0.0101-3.13 6e-3 -6.25 0.00784-9.38 0.00725-3.96-1.01e-4 -7.93 0.0134-11.9 0.0308-3.08 0.0113-6.16 0.0131-9.23 0.0126-1.46 0.00116-2.92 0.0055-4.38 0.0133-23.4 0.114-41.6-4.08-59.1-20.2-2.08 3.64-3.02 7.51-4.03 11.5-0.397 1.55-0.793 3.09-1.19 4.64-0.311 1.22-0.311 1.22-0.629 2.47-17.2 67.1-41.3 132-70.1 195-0.389 0.859-0.778 1.72-1.18 2.6-7.42 16.3-7.42 16.3-13.8 19.4-6.39 2.33-12.4 2.28-19.2 2.25-1.23 0.00231-2.46 0.00462-3.73 0.00699-3.42 0.00438-6.84-2.05e-4 -10.3-0.00856-3.72-0.00687-7.44-0.00213-11.2 0.00115-6.52 0.00415-13 8.61e-4 -19.5-0.00728-9.69-0.0121-19.4-0.0127-29.1-0.0109-16.3 0.00263-32.6-0.00406-48.9-0.016-16.1-0.0118-32.3-0.0195-48.4-0.0217-1.5-2.06e-4 -1.5-2.06e-4 -3.04-4.17e-4 -5.09-6.77e-4 -10.2-0.00128-15.3-0.00185-36.1-0.0042-72.2-0.0177-108-0.0366-35.1-0.0184-70.1-0.0325-105-0.041-1.08-2.63e-4 -2.16-5.26e-4 -3.28-7.97e-4 -10.9-0.00264-21.7-0.00519-32.6-0.00768-22.1-0.00507-44.2-0.0107-66.3-0.0167-1.02-2.75e-4 -2.03-5.49e-4 -3.08-8.32e-4 -67.9-0.0184-136-0.0501-204-0.0839-0.109-1.08-0.218-2.16-0.33-3.28-0.412-4.07-0.831-8.15-1.25-12.2-0.18-1.75-0.358-3.5-0.535-5.25-6.2-61.4-31.4-116-73.9-160-0.611-0.652-1.22-1.3-1.85-1.98-4.12-4.28-8.65-8-13.3-11.7-1.81-1.46-3.61-2.95-5.38-4.46-13.5-11.5-28.8-20.7-44.5-28.8-0.738-0.383-1.48-0.765-2.24-1.16-27.1-13.9-56.5-22.4-86.8-25.8-0.789-0.0943-1.58-0.189-2.39-0.286-8.75-0.928-17.5-0.958-26.3-0.964-0.818-6.75e-4 -1.64-0.00135-2.48-0.00204-49.4 0.0644-100 14.4-141 43.3-1.15 0.801-2.3 1.6-3.45 2.4-15.5 10.8-29.4 23.1-42.5 36.6-0.66-0.33-1.32-0.66-2-1-0.0171-51.7-0.0331-103-0.0423-155-1.38e-4 -0.766-2.76e-4 -1.53-4.18e-4 -2.32-0.00299-16.7-0.00576-33.3-0.0083-50-0.00125-8.17-0.00254-16.3-0.00387-24.5-1.31e-4 -0.813-2.62e-4 -1.63-3.96e-4 -2.46-0.00425-26.3-0.0118-52.6-0.021-78.9-0.00945-27-0.0156-54.1-0.0176-81.1-2.88e-4 -3.83-6.14e-4 -7.66-9.62e-4 -11.5-6.74e-5 -0.753-1.35e-4 -1.51-2.04e-4 -2.28-0.00118-12.1-0.0058-24.2-0.0118-36.2-0.00592-12.2-0.00813-24.3-0.00667-36.5 6.89e-4 -6.58-3.05e-4 -13.2-0.0057-19.8-0.053-68.1-0.053-68.1 2.81-87.1 0.174-1.19 0.347-2.39 0.526-3.62 6.38-41.7 21.9-83.4 46.8-118 0.761-1.05 1.52-2.11 2.3-3.19 15.3-20.8 33.1-41.1 53.7-56.8 1.16-0.916 2.33-1.83 3.49-2.75 22.5-17.5 47.7-31.5 74.5-41.3 0.819-0.304 1.64-0.608 2.48-0.921 18.6-6.82 37.9-11.3 57.5-13.9 0.825-0.112 1.65-0.224 2.5-0.339 15.5-1.88 31.3-2 46.9-1.98zm60.4 178c-13 15-16.9 31.8-16.8 51.2-0.00156 1.23-0.00312 2.46-0.00473 3.73-0.00329 3.4-0.00212 6.8 9.86e-4 10.2 0.00227 3.67-0.00123 7.35-0.00398 11-0.00444 7.19-0.00349 14.4-5.87e-4 21.6 0.00226 5.84 0.00256 11.7 0.00148 17.5-1.53e-4 0.831-3.06e-4 1.66-4.64e-4 2.52-3.2e-4 1.69-6.44e-4 3.38-9.73e-4 5.07-0.00285 15.8 4.25e-4 31.6 0.0058 47.5 0.00447 13.6 0.00369 27.2-9.19e-4 40.8-0.00535 15.8-0.00746 31.6-0.00439 47.3 3.19e-4 1.68 6.33e-4 3.36 9.43e-4 5.04 1.54e-4 0.827 3.09e-4 1.65 4.68e-4 2.51 8.65e-4 5.84-5.97e-4 11.7-0.00295 17.5-0.0028 7.1-0.00206 14.2 0.00328 21.3 0.00264 3.63 0.00364 7.25 3.51e-4 10.9-0.00351 3.92 6.65e-4 7.85 0.00568 11.8-0.00223 1.16-0.00446 2.32-0.00676 3.51 0.00261 1.04 0.00522 2.08 0.0079 3.16 1.62e-4 0.907 3.25e-4 1.81 4.92e-4 2.75-0.101 2.03-0.101 2.03 1.13 3.04 2.77 0.124 5.52 0.187 8.29 0.211 1.75 0.0256 3.51 0.052 5.26 0.0791 0.921 0.0133 1.84 0.0265 2.79 0.0402 47.6 0.749 87.5 12.2 122 46.7 32 33.1 40.1 76.5 40.2 121 0.00797 1.92 0.0164 3.84 0.0251 5.77 0.0179 4.1 0.033 8.2 0.0458 12.3 0.0204 6.48 0.048 13 0.0767 19.4 0.0648 14.9 0.121 29.8 0.176 44.7 0.0508 13.7 0.104 27.4 0.165 41.1 0.0284 6.45 0.052 12.9 0.0719 19.3 0.0133 3.99 0.0308 7.98 0.0493 12 0.00778 1.86 0.0138 3.71 0.0181 5.57 0.00601 2.52 0.018 5.05 0.0316 7.57 2.96e-4 0.744 5.92e-4 1.49 8.97e-4 2.26-0.271 3.36-0.271 3.36 1.15 6.15 1.86 0.0987 3.72 0.126 5.58 0.127 1.82 0.00423 1.82 0.00423 3.67 0.00854 1.35-0.00194 2.71-0.00399 4.06-0.00613 1.42 0.00135 2.83 0.00313 4.25 0.00531 3.86 0.00457 7.72 0.00278 11.6-3.79e-4 4.03-0.00252 8.06-1.86e-4 12.1 0.00139 6.77 0.00182 13.5-5.85e-4 20.3-0.00534 7.84-0.00544 15.7-0.00368 23.5 0.00183 6.72 0.00453 13.4 0.00518 20.2 0.00256 4.02-0.00156 8.03-0.00176 12.1 0.00154 3.78 0.00288 7.55 9.03e-4 11.3-0.00489 1.39-0.00133 2.78-9.33e-4 4.17 0.00126 1.89 0.00271 3.78-0.00128 5.67-0.00568 1.06-3.77e-4 2.12-7.54e-4 3.21-0.00114 2.32 0.141 2.32 0.141 3.37-1.13 0.0977-1.54 0.125-3.09 0.125-4.63 0.0025-1.01 0.00501-2.02 0.00759-3.06-0.00234-1.12-0.00468-2.25-0.00709-3.41 0.00145-1.19 0.00291-2.38 0.0044-3.6 0.00304-3.33 0.00155-6.65-0.00178-9.98-0.00252-3.61 7.17e-4 -7.22 0.00324-10.8 0.00362-6.33 0.00349-12.7 9.53e-4 -19-0.00377-9.42-0.00186-18.8 0.00121-28.3 0.00528-16.8 0.0048-33.6 0.00192-50.4-0.00251-14.7-0.00317-29.4-0.00198-44.1 7.64e-5 -0.974 1.53e-4 -1.95 2.31e-4 -2.95 3.11e-4 -3.95 6.3e-4 -7.91 9.6e-4 -11.9 0.00306-37.1 2.81e-4 -74.3-0.0051-111-0.00475-33-0.00432-66 4.61e-4 -99.1 0.00535-37.1 0.00748-74.1 0.00439-111-3.21e-4 -3.95-6.34e-4 -7.9-9.43e-4 -11.8-7.91e-5 -0.972-1.58e-4 -1.94-2.4e-4 -2.95-0.00114-14.7 1.97e-4 -29.4 0.00272-44.1 0.00285-16.7 0.00216-33.4-0.00328-50.2-0.00295-9.37-0.00311-18.7 6.46e-4 -28.1 0.00223-6.24 8.68e-4 -12.5-0.0035-18.7-0.00239-3.57-0.00316-7.13 4.06e-4 -10.7 0.00379-3.83-3.66e-5 -7.66-0.00472-11.5 0.00234-1.12 0.00468-2.25 0.00709-3.41-0.0025-1.01-0.00501-2.02-0.00759-3.06-6.78e-5 -0.877-1.36e-4 -1.75-2.05e-4 -2.66 0.093-1.98 0.093-1.98-1.13-2.97-1.39-0.0983-2.78-0.127-4.17-0.129-1.36-0.00484-1.36-0.00484-2.74-0.00977-1.01 0.00155-2.01 0.0031-3.05 0.00469-1.06-0.00227-2.12-0.00453-3.21-0.00687-3.58-0.00637-7.17-0.00551-10.7-0.00469-2.56-0.00299-5.11-0.00639-7.67-0.0102-6.25-0.00795-12.5-0.0111-18.7-0.0116-5.08-4.75e-4 -10.2-0.00253-15.2-0.0057-14.4-0.00882-28.8-0.0134-43.2-0.0127-0.778 4e-5 -1.56 7.99e-5 -2.36 1.21e-4 -0.779 4.09e-5 -1.56 8.18e-5 -2.36 1.24e-4 -12.6 4.05e-4 -25.2-0.00914-37.8-0.0233-12.9-0.0144-25.9-0.0213-38.8-0.0204-7.26 3.31e-4 -14.5-0.00238-21.8-0.0132-6.84-0.0101-13.7-0.00973-20.5-0.00248-2.5 0.00104-5.01-0.00129-7.51-0.00736-26.3-0.0596-48.9 1.38-68.4 21.4zm356-21.1c-1.11 3.57-1.13 6.9-1.13 10.6-0.00145 0.668-0.00291 1.34-0.0044 2.02-0.00366 2.25-1.73e-4 4.5 0.00326 6.74-0.00115 1.62-0.00274 3.25-0.00473 4.87-0.00419 4.47-0.00211 8.94 9.86e-4 13.4 0.00226 4.82-0.00123 9.63-0.00398 14.5-0.00445 9.44-0.00348 18.9-5.87e-4 28.3 0.00226 7.67 0.00257 15.3 0.00148 23-1.53e-4 1.09-3.06e-4 2.18-4.64e-4 3.3-3.2e-4 2.21-6.44e-4 4.43-9.73e-4 6.64-0.00285 20.8 4.3e-4 41.5 0.0058 62.3 0.00447 17.8 0.00369 35.7-9.19e-4 53.5-0.00534 20.7-0.00746 41.4-0.00439 62.1 3.19e-4 2.2 6.33e-4 4.41 9.43e-4 6.61 1.54e-4 1.08 3.09e-4 2.17 4.68e-4 3.29 8.65e-4 7.66-5.98e-4 15.3-0.00295 23-0.0028 9.33-0.00206 18.7 0.00328 28 0.00264 4.77 0.00364 9.53 3.51e-4 14.3-0.00296 4.36-0.00137 8.71 0.00398 13.1 0.00112 1.58 5.31e-4 3.17-0.00188 4.75-3e-3 2.14 3.95e-5 4.27 0.00472 6.41 1.62e-4 1.19 3.25e-4 2.38 4.92e-4 3.61-0.175 2.56-0.175 2.56 1.13 3.64 2.25 0.105 4.49 0.138 6.74 0.145 0.713 0.00353 1.43 0.00705 2.16 0.0107 2.41 0.0107 4.82 0.0144 7.22 0.0181 1.72 0.0063 3.44 0.0131 5.16 0.0203 3.71 0.0147 7.43 0.0264 11.1 0.0359 5.88 0.0154 11.8 0.0394 17.6 0.0649 16.7 0.0713 33.4 0.131 50.1 0.182 9.22 0.0283 18.4 0.0637 27.7 0.107 5.84 0.0267 11.7 0.0447 17.5 0.056 3.64 0.00916 7.28 0.0265 10.9 0.0462 1.68 0.00745 3.37 0.0116 5.05 0.012 17.5 0.00829 31.1 2.94 44.2 15.5 4.04 4.51 6.9 9.31 9.48 14.8 0.539 1.13 0.539 1.13 1.09 2.28 4.29 11.2 3.3 26.7-0.773 37.8-5.61 12.3-13.8 21.7-26.5 26.9-6.85 2.43-13.6 4.05-20.8 4.99-1.76 1.76-1.13 4.07-1.13 6.41 0.00223 0.782 0.00446 1.56 0.00676 2.37-0.00156 0.825-0.00312 1.65-0.00473 2.5-0.00401 2.79-8.19e-4 5.57 0.00232 8.36-0.00135 1.99-0.00313 3.98-0.00531 5.97-0.00458 5.42-0.00278 10.8 3.79e-4 16.3 0.00252 5.66 1.86e-4 11.3-0.00139 17-0.00182 9.5 5.85e-4 19 0.00534 28.5 0.00544 11 0.00368 22-0.00183 33-0.00453 9.43-0.00518 18.9-0.00256 28.3 0.00156 5.64 0.00176 11.3-0.00154 16.9-0.00288 5.3-9.05e-4 10.6 0.00489 15.9 0.00133 1.95 9.33e-4 3.9-0.00126 5.85-0.00271 2.65 6.67e-4 5.3 0.00568 7.95-0.00223 0.782-0.00446 1.56-0.00676 2.37-0.307 3.5-0.307 3.5 1.13 6.41 1.43 0.0977 2.86 0.126 4.29 0.127 0.925 0.00282 1.85 0.00564 2.8 0.00854 1.02-0.00202 2.05-0.00405 3.1-0.00613 1.07 0.00175 2.14 0.0035 3.25 0.00531 3.56 0.00442 7.12 0.00148 10.7-0.00189 2.46 6.73e-4 4.92 0.00164 7.39 0.0029 5.17 0.00148 10.3-6.79e-4 15.5-0.00534 6.64-0.0057 13.3-0.00242 19.9 0.00357 5.09 0.0036 10.2 0.00247 15.3-1.28e-4 2.45-6.7e-4 4.9 1.6e-4 7.35 0.00248 3.42 0.00253 6.83-0.00131 10.3-0.0069 1.02 0.00202 2.05 0.00405 3.1 0.00613 0.925-0.00282 1.85-0.00564 2.8-0.00854 1.21-5.66e-4 1.21-5.66e-4 2.45-0.00114 1.86 0.0752 1.86 0.0752 2.84-1.13 0.0977-1.54 0.125-3.09 0.125-4.63 0.0025-1.01 0.00501-2.02 0.00759-3.06-0.00234-1.12-0.00468-2.25-0.00709-3.41 0.00145-1.19 0.00291-2.38 0.0044-3.6 0.00304-3.33 0.00155-6.65-0.00178-9.98-0.00252-3.61 7.17e-4 -7.22 0.00324-10.8 0.00362-6.33 0.00349-12.7 9.53e-4 -19-0.00377-9.42-0.00186-18.8 0.00121-28.3 0.00528-16.8 0.0048-33.6 0.00192-50.4-0.00251-14.7-0.00317-29.4-0.00198-44.1 7.64e-5 -0.974 1.53e-4 -1.95 2.31e-4 -2.95 3.11e-4 -3.95 6.3e-4 -7.91 9.6e-4 -11.9 0.00306-37.1 2.81e-4 -74.3-0.0051-111-0.00475-33-0.00432-66 4.61e-4 -99.1 0.00535-37.1 0.00748-74.1 0.00439-111-3.21e-4 -3.95-6.34e-4 -7.9-9.43e-4 -11.8-7.91e-5 -0.972-1.58e-4 -1.94-2.4e-4 -2.95-0.00114-14.7 1.97e-4 -29.4 0.00272-44.1 0.00285-16.7 0.00216-33.4-0.00328-50.2-0.00295-9.37-0.00311-18.7 6.46e-4 -28.1 0.00223-6.24 8.68e-4 -12.5-0.0035-18.7-0.00239-3.57-0.00316-7.13 4.06e-4 -10.7 0.00379-3.83-3.66e-5 -7.66-0.00472-11.5 0.00234-1.12 0.00468-2.25 0.00709-3.41-0.0025-1.01-0.00501-2.02-0.00759-3.06-6.78e-5 -0.877-1.36e-4 -1.75-2.05e-4 -2.66 0.093-1.98 0.093-1.98-1.13-2.97-1.49-0.0968-2.98-0.124-4.46-0.123-0.97-0.00199-1.94-0.00398-2.94-0.00603-1.08 0.00291-2.16 0.00583-3.27 0.00883-1.7-0.00128-1.7-0.00128-3.44-0.00259-3.17-0.00137-6.33 0.00178-9.5 0.00678-3.41 0.0043-6.82 0.00286-10.2 0.0021-5.91-5.25e-4 -11.8 0.00262-17.7 0.00824-8.55 0.00811-17.1 0.0107-25.6 0.012-13.9 0.00219-27.7 0.00885-41.6 0.0183-13.5 0.00917-27 0.0163-40.4 0.0205-1.25 3.94e-4 -1.25 3.94e-4 -2.52 7.96e-4 -4.16 0.0013-8.33 0.00257-12.5 0.00381-34.6 0.0104-69.1 0.028-104 0.0503zm325 1c-0.097 1.57-0.124 3.14-0.123 4.71-0.00199 1.03-0.00398 2.05-0.00603 3.11 0.00291 1.14 0.00583 2.28 0.00883 3.46-8.54e-4 1.2-0.00171 2.4-0.00259 3.64-0.00137 3.35 0.00178 6.7 0.00678 10 0.0043 3.61 0.00286 7.21 0.0021 10.8-5.25e-4 6.25 0.00262 12.5 0.00824 18.8 0.00811 9.04 0.0107 18.1 0.012 27.1 0.00219 14.7 0.00885 29.3 0.0183 44 0.00917 14.3 0.0162 28.5 0.0205 42.8 2.68e-4 0.887 5.36e-4 1.77 8.12e-4 2.69 0.00208 6.94 0.00404 13.9 0.00595 20.8 0.00944 34 0.0296 68 0.0482 102h212c-0.629-8.81-1.31-17.4-2.62-26.1-0.172-1.14-0.344-2.27-0.521-3.45-12.6-81.2-37.8-158-88.9-265-1.54-0.098-3.09-0.126-4.63-0.127-1-0.00282-2-0.00564-3.03-0.00854-1.11 0.00202-2.22 0.00405-3.36 0.00613-1.74-0.00263-1.74-0.00263-3.51-0.00531-3.85-0.00442-7.71-0.00148-11.6 0.00189-2.66-6.73e-4 -5.33-0.00164-7.99-0.0029-5.59-0.00182-11.2 5.84e-4 -16.8 0.00534-6.47 0.00544-12.9 0.00368-19.4-0.00183-5.55-0.00453-11.1-0.00518-16.6-0.00256-3.32 0.00156-6.64 0.00137-9.95-0.00154-3.7-0.00252-7.39 0.00131-11.1 0.0069-1.11-0.00202-2.22-0.00405-3.36-0.00613-1.5 0.00423-1.5 0.00423-3.03 0.00854-0.875 3.77e-4 -1.75 7.54e-4 -2.65 0.00114-1.98-0.0929-1.98-0.0929-2.98 1.13zm70.8 405c-14.2 0.0621-14.2 0.0621-26.8 5.98v2h-2c-4.78 6.12-6.67 12.3-6 20 1.73 7.7 4.63 12.5 11.1 17.2 8.69 4.52 19.6 4.05 29.2 4.02 1.22 0.00191 2.44 0.00383 3.7 0.0058 2.56 0.00135 5.12-0.00228 7.68-0.0107 3.89-0.0107 7.78-7.1e-5 11.7 0.0127 2.5-0.00132 5.01-0.00388 7.51-0.00781 1.15 0.00405 2.29 0.0081 3.48 0.0123 15.1 0.0283 15.1 0.0283 28.1-6.64 5.17-5.23 7.17-10.7 7.99-17.9-0.793-7.79-3.74-13.7-9.3-19.2-6.15-4.36-11.7-4.98-19.1-5.16-0.983-0.0327-1.97-0.0654-2.98-0.0991-14.7-0.43-29.5-0.294-44.2-0.191z" fill="#000002"/>
<path transform="translate(257 1021)" d="m0 0c0.776 5.44e-4 1.55 0.00109 2.35 0.00165 57.4 0.183 110 23.8 150 63.9 0.926 0.912 0.926 0.912 1.87 1.84 4.32 4.35 4.32 4.35 4.32 6.59h2c1.26 1.31 1.26 1.31 2.69 3.16 0.793 1.03 0.793 1.03 1.6 2.07 0.564 0.749 1.13 1.5 1.71 2.27 0.875 1.16 0.875 1.16 1.77 2.34 5.56 7.45 10.6 15.1 15.2 23.2 0.413 0.713 0.827 1.43 1.25 2.16 17.9 31.4 26.7 66.8 26.7 103h-422c2.93-61.6 25.1-115 70.6-157 10.2-9.03 21-16.6 32.7-23.6 1.43-0.875 2.84-1.79 4.24-2.71 17.2-11.1 38.3-17.7 58.1-22.1 0.893-0.199 1.79-0.398 2.71-0.603 14-2.93 27.8-4.06 42-4.02z" fill="#000002"/>
<path transform="translate(1377,1029)" d="m0 0c6.78 0.531 13.3 1.53 19.9 3.12 1.35 0.327 1.35 0.327 2.73 0.661 31.7 7.93 60.1 23 84.1 45.1 2 1.83 4.05 3.58 6.13 5.32 34.4 30.2 55 76.1 61.1 121 0.105 0.753 0.209 1.51 0.317 2.28 0.959 8.01 0.683 15.5 0.683 23.7h-248c1.46-3.65 2.97-7.25 4.55-10.9 27.1-61.9 50.3-125 68.5-190z" fill="#000002"/>
<path transform="translate(1200,1278)" d="m0 0h265c-3.41 20.5-17.2 39.1-31 54-0.976 1.1-0.976 1.1-1.97 2.22-16.5 17.7-39.6 29.3-62.7 35.5-0.739 0.199-1.48 0.398-2.24 0.603-11.6 2.95-23 4.01-34.9 3.96-1.32-0.00491-2.64-0.00983-3.99-0.0149-31.8-0.381-60.7-12.4-85.3-32.3-1.17-0.824-1.17-0.824-2.36-1.66-0.541-0.441-1.08-0.882-1.64-1.34v-2c-0.547-0.217-1.09-0.433-1.66-0.656-13.9-7.96-23.9-27.1-30.9-40.8-0.31-0.609-0.621-1.22-0.94-1.85-2.51-5.18-3.79-9.96-5.5-15.7z" fill="#000002"/>
<path transform="translate(126,1279)" d="m0 0h265c-7.07 17.7-7.07 17.7-10.3 23.7-0.379 0.707-0.758 1.41-1.15 2.14-5.77 10.5-13.3 19.5-21.5 28.2-0.599 0.664-1.2 1.33-1.82 2.01-21.6 23-56 37.9-87.3 39.1-14.8 0.332-29.4 0.63-43.8-3.12-0.645-0.166-1.29-0.333-1.95-0.504-34-9.01-64.3-30.6-83-60.5-0.36-0.569-0.721-1.14-1.09-1.73-12.9-20.7-12.9-20.7-12.9-29.3z" fill="#000002"/>
</svg>
