<svg width="291" height="290" viewBox="0 0 291 290" fill="none" xmlns="http://www.w3.org/2000/svg">
<mask id="mask0_29_232" style="mask-type:luminance" maskUnits="userSpaceOnUse" x="0" y="0" width="291" height="290">
<path fill-rule="evenodd" clip-rule="evenodd" d="M0.960022 0.63562H290.08V289.591H0.960022V0.63562Z" fill="white"/>
</mask>
<g mask="url(#mask0_29_232)">
<path fill-rule="evenodd" clip-rule="evenodd" d="M145.52 0.63562C65.682 0.63562 0.960022 65.3208 0.960022 145.113C0.960022 224.906 65.682 289.591 145.52 289.591C225.358 289.591 290.08 224.906 290.08 145.113C290.08 65.3208 225.358 0.63562 145.52 0.63562Z" fill="#EFF3F9"/>
</g>
<path fill-rule="evenodd" clip-rule="evenodd" d="M111.121 241.112C100.737 241.112 92.3195 232.699 92.3195 222.322C92.3195 211.944 100.737 203.532 111.121 203.532C121.505 203.532 129.922 211.944 129.922 222.322C129.922 232.699 121.505 241.112 111.121 241.112Z" fill="white"/>
<path fill-rule="evenodd" clip-rule="evenodd" d="M73.1005 202.222C70.0697 202.222 67.613 199.766 67.613 196.737C67.613 193.708 70.0697 191.251 73.1005 191.251C76.132 191.251 78.5887 193.708 78.5887 196.737C78.5887 199.766 76.132 202.222 73.1005 202.222Z" fill="white"/>
<path fill-rule="evenodd" clip-rule="evenodd" d="M163.104 229.632C161.085 229.632 159.448 227.995 159.448 225.976C159.448 223.958 161.085 222.322 163.104 222.322C165.124 222.322 166.761 223.958 166.761 225.976C166.761 227.995 165.124 229.632 163.104 229.632Z" fill="white"/>
<path fill-rule="evenodd" clip-rule="evenodd" d="M213.711 57.0678C211.691 57.0678 210.054 55.4317 210.054 53.4132C210.054 51.3947 211.691 49.7587 213.711 49.7587C215.731 49.7587 217.367 51.3947 217.367 53.4132C217.367 55.4317 215.731 57.0678 213.711 57.0678Z" fill="white"/>
<path fill-rule="evenodd" clip-rule="evenodd" d="M191.871 98.6527H200.059V97.9404C200.059 95.536 198.109 93.5868 195.702 93.5868H172.201C169.795 93.5868 167.845 95.536 167.845 97.9404V167.369H186.109V104.411C186.109 101.23 188.689 98.6527 191.871 98.6527Z" fill="#E0E8F6"/>
<mask id="mask1_29_232" style="mask-type:luminance" maskUnits="userSpaceOnUse" x="0" y="0" width="291" height="290">
<path fill-rule="evenodd" clip-rule="evenodd" d="M0.960022 289.591H290.08V0.635468H0.960022V289.591Z" fill="white"/>
</mask>
<g mask="url(#mask1_29_232)">
<path fill-rule="evenodd" clip-rule="evenodd" d="M143.118 167.37H163.093V107.302H143.118V167.37Z" fill="#D0DBF0"/>
<path fill-rule="evenodd" clip-rule="evenodd" d="M192.724 90.2847H175.179C174.508 90.2847 173.965 89.741 173.965 89.0713V81.9559C173.965 81.2862 174.508 80.7425 175.179 80.7425H192.724C193.395 80.7425 193.939 81.2862 193.939 81.9559V89.0713C193.939 89.741 193.395 90.2847 192.724 90.2847Z" fill="#E0E8F6"/>
<path fill-rule="evenodd" clip-rule="evenodd" d="M138.791 167.37H98.1271V65.1078C98.1271 62.8638 100.237 61.216 102.416 61.7597L136.174 70.1762C137.712 70.5595 138.791 71.94 138.791 73.5242V167.37Z" fill="#D0DBF0"/>
<path fill-rule="evenodd" clip-rule="evenodd" d="M80.1011 167.37V132.023C80.1011 128.853 82.6715 126.284 85.8434 126.284H92.3578V167.37H80.1011Z" fill="#E0E8F6"/>
<path fill-rule="evenodd" clip-rule="evenodd" d="M182.509 160.642C181.667 160.642 180.984 159.96 180.984 159.118V105.462C180.984 104.621 181.667 103.938 182.509 103.938C183.352 103.938 184.034 104.621 184.034 105.462V159.118C184.034 159.96 183.352 160.642 182.509 160.642Z" fill="#C0CBE2"/>
<path fill-rule="evenodd" clip-rule="evenodd" d="M174.047 160.642C173.205 160.642 172.522 159.96 172.522 159.118V105.462C172.522 104.621 173.205 103.938 174.047 103.938C174.89 103.938 175.572 104.621 175.572 105.462V159.118C175.572 159.96 174.89 160.642 174.047 160.642Z" fill="#C0CBE2"/>
<path fill-rule="evenodd" clip-rule="evenodd" d="M131.08 85.5133H107.005C105.686 85.5133 104.618 84.4451 104.618 83.1281C104.618 81.8103 105.686 80.7422 107.005 80.7422H131.08C132.398 80.7422 133.466 81.8103 133.466 83.1281C133.466 84.4451 132.398 85.5133 131.08 85.5133Z" fill="#C1CAE7"/>
<path fill-rule="evenodd" clip-rule="evenodd" d="M131.08 95.972H107.005C105.686 95.972 104.618 94.9038 104.618 93.5868C104.618 92.269 105.686 91.2009 107.005 91.2009H131.08C132.398 91.2009 133.466 92.269 133.466 93.5868C133.466 94.9038 132.398 95.972 131.08 95.972Z" fill="#C1CAE7"/>
<path fill-rule="evenodd" clip-rule="evenodd" d="M131.08 106.43H107.005C105.686 106.43 104.618 105.362 104.618 104.045C104.618 102.727 105.686 101.659 107.005 101.659H131.08C132.398 101.659 133.466 102.727 133.466 104.045C133.466 105.362 132.398 106.43 131.08 106.43Z" fill="#C1CAE7"/>
<path fill-rule="evenodd" clip-rule="evenodd" d="M131.08 116.889H107.005C105.686 116.889 104.618 115.821 104.618 114.503C104.618 113.185 105.686 112.118 107.005 112.118H131.08C132.398 112.118 133.466 113.185 133.466 114.503C133.466 115.821 132.398 116.889 131.08 116.889Z" fill="#C1CAE7"/>
<path fill-rule="evenodd" clip-rule="evenodd" d="M131.08 127.347H107.005C105.686 127.347 104.618 126.279 104.618 124.962C104.618 123.644 105.686 122.576 107.005 122.576H131.08C132.398 122.576 133.466 123.644 133.466 124.962C133.466 126.279 132.398 127.347 131.08 127.347Z" fill="#C1CAE7"/>
<path fill-rule="evenodd" clip-rule="evenodd" d="M131.08 137.806H107.005C105.686 137.806 104.618 136.738 104.618 135.421C104.618 134.103 105.686 133.035 107.005 133.035H131.08C132.398 133.035 133.466 134.103 133.466 135.421C133.466 136.738 132.398 137.806 131.08 137.806Z" fill="#C1CAE7"/>
<path fill-rule="evenodd" clip-rule="evenodd" d="M131.08 148.264H107.005C105.686 148.264 104.618 147.196 104.618 145.879C104.618 144.561 105.686 143.493 107.005 143.493H131.08C132.398 143.493 133.466 144.561 133.466 145.879C133.466 147.196 132.398 148.264 131.08 148.264Z" fill="#C1CAE7"/>
<path fill-rule="evenodd" clip-rule="evenodd" d="M131.08 158.722H107.005C105.686 158.722 104.618 157.655 104.618 156.337C104.618 155.019 105.686 153.951 107.005 153.951H131.08C132.398 153.951 133.466 155.019 133.466 156.337C133.466 157.655 132.398 158.722 131.08 158.722Z" fill="#C1CAE7"/>
<path fill-rule="evenodd" clip-rule="evenodd" d="M70.7209 167.37H38.5066V103.857C38.5066 100.983 40.8379 98.6525 43.7141 98.6525H65.5142C68.3896 98.6525 70.7209 100.983 70.7209 103.857V167.37Z" fill="#E0E8F6"/>
<path fill-rule="evenodd" clip-rule="evenodd" d="M64.622 112.346H44.6067C43.4853 112.346 42.577 111.439 42.577 110.318V110.241C42.577 109.12 43.4853 108.212 44.6067 108.212H64.622C65.7426 108.212 66.6517 109.12 66.6517 110.241V110.318C66.6517 111.439 65.7426 112.346 64.622 112.346Z" fill="#C1CAE7"/>
<path fill-rule="evenodd" clip-rule="evenodd" d="M64.622 121.409H44.6067C43.4853 121.409 42.577 120.501 42.577 119.381V119.304C42.577 118.183 43.4853 117.275 44.6067 117.275H64.622C65.7426 117.275 66.6517 118.183 66.6517 119.304V119.381C66.6517 120.501 65.7426 121.409 64.622 121.409Z" fill="#C1CAE7"/>
<path fill-rule="evenodd" clip-rule="evenodd" d="M64.622 130.472H44.6067C43.4853 130.472 42.577 129.563 42.577 128.444V128.367C42.577 127.246 43.4853 126.337 44.6067 126.337H64.622C65.7426 126.337 66.6517 127.246 66.6517 128.367V128.444C66.6517 129.563 65.7426 130.472 64.622 130.472Z" fill="#C1CAE7"/>
<path fill-rule="evenodd" clip-rule="evenodd" d="M64.622 139.535H44.6067C43.4853 139.535 42.577 138.626 42.577 137.507V137.429C42.577 136.309 43.4853 135.4 44.6067 135.4H64.622C65.7426 135.4 66.6517 136.309 66.6517 137.429V137.507C66.6517 138.626 65.7426 139.535 64.622 139.535Z" fill="#C1CAE7"/>
<path fill-rule="evenodd" clip-rule="evenodd" d="M64.622 148.598H44.6067C43.4853 148.598 42.577 147.689 42.577 146.569V146.493C42.577 145.372 43.4853 144.463 44.6067 144.463H64.622C65.7426 144.463 66.6517 145.372 66.6517 146.493V146.569C66.6517 147.689 65.7426 148.598 64.622 148.598Z" fill="#C1CAE7"/>
<path fill-rule="evenodd" clip-rule="evenodd" d="M64.622 157.66H44.6067C43.4853 157.66 42.577 156.752 42.577 155.632V155.555C42.577 154.434 43.4853 153.527 44.6067 153.527H64.622C65.7426 153.527 66.6517 154.434 66.6517 155.555V155.632C66.6517 156.752 65.7426 157.66 64.622 157.66Z" fill="#C1CAE7"/>
<path fill-rule="evenodd" clip-rule="evenodd" d="M227.489 170.253H188.057V107.294C188.057 104.113 190.636 101.535 193.818 101.535H221.727C224.909 101.535 227.489 104.113 227.489 107.294V170.253Z" fill="#E0E8F6"/>
<path fill-rule="evenodd" clip-rule="evenodd" d="M220.439 115.229H195.108C193.964 115.229 193.039 114.304 193.039 113.162C193.039 112.021 193.964 111.095 195.108 111.095H220.439C221.581 111.095 222.508 112.021 222.508 113.162C222.508 114.304 221.581 115.229 220.439 115.229Z" fill="#C1CAE7"/>
<path fill-rule="evenodd" clip-rule="evenodd" d="M220.439 124.292H195.108C193.964 124.292 193.039 123.367 193.039 122.225C193.039 121.084 193.964 120.157 195.108 120.157H220.439C221.581 120.157 222.508 121.084 222.508 122.225C222.508 123.367 221.581 124.292 220.439 124.292Z" fill="#C1CAE7"/>
<path fill-rule="evenodd" clip-rule="evenodd" d="M220.439 133.355H195.108C193.964 133.355 193.039 132.43 193.039 131.288C193.039 130.147 193.964 129.22 195.108 129.22H220.439C221.581 129.22 222.508 130.147 222.508 131.288C222.508 132.43 221.581 133.355 220.439 133.355Z" fill="#C1CAE7"/>
<path fill-rule="evenodd" clip-rule="evenodd" d="M89.8991 101.659C86.743 101.659 84.1836 99.1021 84.1836 95.9478V85.4761H63.0285V95.0283H68.5636C71.8634 95.0283 74.5382 97.7016 74.5382 101V167.369H77.6934V129.858C77.6934 126.357 80.532 123.52 84.034 123.52H92.3575V101.659H89.8991Z" fill="#D0DBF0"/>
<path fill-rule="evenodd" clip-rule="evenodd" d="M189.674 74.5574H178.229C177.559 74.5574 177.016 74.0138 177.016 73.344V67.7093C177.016 67.0396 177.559 66.4959 178.229 66.4959H189.674C190.345 66.4959 190.888 67.0396 190.888 67.7093V73.344C190.888 74.0138 190.345 74.5574 189.674 74.5574Z" fill="#E0E8F6"/>
<path fill-rule="evenodd" clip-rule="evenodd" d="M186.11 64.2259H181.794V53.0159C181.794 52.5591 182.164 52.1883 182.621 52.1883H185.282C185.74 52.1883 186.11 52.5591 186.11 53.0159V64.2259Z" fill="#E0E8F6"/>
<path fill-rule="evenodd" clip-rule="evenodd" d="M196.813 177.941H69.8965C68.105 177.941 66.651 176.489 66.651 174.697C66.651 172.906 68.105 171.454 69.8965 171.454H196.813C198.606 171.454 200.059 172.906 200.059 174.697C200.059 176.489 198.606 177.941 196.813 177.941Z" fill="#7E89A0"/>
<path fill-rule="evenodd" clip-rule="evenodd" d="M274.064 183.708C274.064 175.093 267.077 168.108 258.456 168.108H246.568H238.524H33.8286C31.3669 168.108 29.3715 166.115 29.3715 163.655C29.3715 161.194 31.3669 159.2 33.8286 159.2H35.1414V152.511H26.7084C18.0883 152.511 11.101 159.494 11.101 168.108C11.101 176.724 18.0883 183.708 26.7084 183.708H242.849H253.999C256.462 183.708 258.456 185.702 258.456 188.162C258.456 190.622 256.462 192.616 253.999 192.616H245.655H223.715C221.866 192.616 220.368 194.114 220.368 195.962C220.368 197.809 221.866 199.306 223.715 199.306H258.641V199.297C267.175 199.197 274.064 192.26 274.064 183.708Z" fill="#919DB6"/>
<path fill-rule="evenodd" clip-rule="evenodd" d="M207.449 192.616H185.856C184.008 192.616 182.509 194.113 182.509 195.962C182.509 197.809 184.008 199.306 185.856 199.306H207.449C209.297 199.306 210.796 197.809 210.796 195.962C210.796 194.113 209.297 192.616 207.449 192.616Z" fill="#919DB6"/>
<path fill-rule="evenodd" clip-rule="evenodd" d="M171.838 240.896H112.157C103.427 240.896 96.3504 233.823 96.3504 225.098V77.1512C96.3504 68.4266 103.427 61.3547 112.157 61.3547H171.838C180.568 61.3547 187.645 68.4266 187.645 77.1512V225.098C187.645 233.823 180.568 240.896 171.838 240.896Z" fill="#535565"/>
<path fill-rule="evenodd" clip-rule="evenodd" d="M168.423 236.269H115.572C107.513 236.269 100.98 229.74 100.98 221.685V80.5652C100.98 72.5104 107.513 65.9813 115.572 65.9813H168.423C176.483 65.9813 183.015 72.5104 183.015 80.5652V221.685C183.015 229.74 176.483 236.269 168.423 236.269Z" fill="#FFE3E0"/>
<path fill-rule="evenodd" clip-rule="evenodd" d="M168.423 236.269H115.572C107.513 236.269 100.98 229.74 100.98 221.685V80.5652C100.98 72.5104 107.513 65.9813 115.572 65.9813H168.423C176.483 65.9813 183.015 72.5104 183.015 80.5652V221.685C183.015 229.74 176.483 236.269 168.423 236.269Z" fill="#F9C32B"/>
<path fill-rule="evenodd" clip-rule="evenodd" d="M155.169 72.3918H128.827C125.529 72.3918 122.855 69.7193 122.855 66.4239V63.774H161.14V66.4239C161.14 69.7193 158.466 72.3918 155.169 72.3918Z" fill="#535565"/>
<path fill-rule="evenodd" clip-rule="evenodd" d="M166.44 212.305H117.556C115.549 212.305 113.922 210.603 113.922 208.504V158.27C113.922 156.17 115.549 154.468 117.556 154.468H166.44C168.446 154.468 170.073 156.17 170.073 158.27V208.504C170.073 210.603 168.446 212.305 166.44 212.305Z" fill="#E5E5E5"/>
<path fill-rule="evenodd" clip-rule="evenodd" d="M165.139 103.873H118.856C117.736 103.873 116.827 102.965 116.827 101.844C116.827 100.723 117.736 99.8148 118.856 99.8148H165.139C166.26 99.8148 167.169 100.723 167.169 101.844C167.169 102.965 166.26 103.873 165.139 103.873Z" fill="white"/>
<path fill-rule="evenodd" clip-rule="evenodd" d="M155.122 113.283H128.872C127.752 113.283 126.843 112.376 126.843 111.255C126.843 110.134 127.752 109.226 128.872 109.226H155.122C156.244 109.226 157.153 110.134 157.153 111.255C157.153 112.376 156.244 113.283 155.122 113.283Z" fill="white"/>
<path fill-rule="evenodd" clip-rule="evenodd" d="M169.939 216.24H114.056C111.974 216.24 110.287 214.492 110.287 212.335V161.599C110.287 159.442 111.974 157.694 114.056 157.694H169.939C172.02 157.694 173.708 159.442 173.708 161.599V212.335C173.708 214.492 172.02 216.24 169.939 216.24Z" fill="#EEEEEE"/>
<path fill-rule="evenodd" clip-rule="evenodd" d="M173.223 219.135H110.772C108.633 219.135 106.899 217.402 106.899 215.264V164.46C106.899 162.323 108.633 160.59 110.772 160.59H173.223C175.362 160.59 177.096 162.323 177.096 164.46V215.264C177.096 217.402 175.362 219.135 173.223 219.135Z" fill="white"/>
<path fill-rule="evenodd" clip-rule="evenodd" d="M120.255 181.306C115.953 181.306 112.466 177.821 112.466 173.522C112.466 169.222 115.953 165.737 120.255 165.737C124.556 165.737 128.044 169.222 128.044 173.522C128.044 177.821 124.556 181.306 120.255 181.306Z" fill="#EFEFEF"/>
<path fill-rule="evenodd" clip-rule="evenodd" d="M163.802 171.688H133.87C133.158 171.688 132.582 171.113 132.582 170.401C132.582 169.69 133.158 169.115 133.87 169.115H163.802C164.513 169.115 165.089 169.69 165.089 170.401C165.089 171.113 164.513 171.688 163.802 171.688Z" fill="#EFEFEF"/>
<path fill-rule="evenodd" clip-rule="evenodd" d="M106.899 186.801H177.096V186.612H106.899V186.801Z" fill="#E2E2E2"/>
<path fill-rule="evenodd" clip-rule="evenodd" d="M169.143 212.138H116.115C114.677 212.138 113.513 210.973 113.513 209.537V203.606C113.513 202.168 114.677 201.004 116.115 201.004H169.143C170.581 201.004 171.746 202.168 171.746 203.606V209.537C171.746 210.973 170.581 212.138 169.143 212.138Z" fill="#F9C32B"/>
</g>
<path d="M133.556 207.674H134.222C134.188 207.994 134.096 208.279 133.948 208.531C133.8 208.783 133.591 208.984 133.32 209.132C133.05 209.277 132.712 209.35 132.307 209.35C132.011 209.35 131.742 209.295 131.499 209.184C131.258 209.073 131.051 208.915 130.878 208.712C130.704 208.506 130.57 208.26 130.475 207.973C130.383 207.684 130.336 207.362 130.336 207.008V206.505C130.336 206.151 130.383 205.831 130.475 205.544C130.57 205.255 130.705 205.007 130.881 204.802C131.059 204.596 131.273 204.437 131.523 204.326C131.773 204.215 132.054 204.16 132.366 204.16C132.748 204.16 133.07 204.231 133.334 204.375C133.598 204.518 133.803 204.717 133.948 204.972C134.096 205.224 134.188 205.516 134.222 205.849H133.556C133.524 205.613 133.464 205.411 133.376 205.242C133.288 205.071 133.163 204.939 133.001 204.847C132.839 204.754 132.627 204.708 132.366 204.708C132.142 204.708 131.944 204.751 131.773 204.836C131.604 204.922 131.462 205.043 131.346 205.201C131.233 205.358 131.147 205.546 131.089 205.766C131.031 205.986 131.003 206.23 131.003 206.498V207.008C131.003 207.256 131.028 207.488 131.079 207.706C131.132 207.923 131.212 208.114 131.318 208.278C131.425 208.442 131.56 208.572 131.724 208.667C131.888 208.759 132.083 208.805 132.307 208.805C132.592 208.805 132.818 208.76 132.987 208.67C133.156 208.58 133.283 208.45 133.369 208.282C133.457 208.113 133.519 207.91 133.556 207.674ZM134.868 207.445V207.366C134.868 207.095 134.907 206.844 134.986 206.613C135.064 206.379 135.178 206.177 135.326 206.006C135.474 205.832 135.653 205.698 135.863 205.603C136.074 205.506 136.31 205.457 136.571 205.457C136.835 205.457 137.072 205.506 137.282 205.603C137.495 205.698 137.676 205.832 137.824 206.006C137.974 206.177 138.089 206.379 138.167 206.613C138.246 206.844 138.285 207.095 138.285 207.366V207.445C138.285 207.716 138.246 207.967 138.167 208.198C138.089 208.43 137.974 208.632 137.824 208.805C137.676 208.977 137.496 209.111 137.286 209.208C137.078 209.303 136.842 209.35 136.578 209.35C136.314 209.35 136.077 209.303 135.867 209.208C135.656 209.111 135.476 208.977 135.326 208.805C135.178 208.632 135.064 208.43 134.986 208.198C134.907 207.967 134.868 207.716 134.868 207.445ZM135.51 207.366V207.445C135.51 207.633 135.532 207.81 135.575 207.976C135.619 208.14 135.685 208.286 135.773 208.413C135.863 208.541 135.976 208.641 136.11 208.715C136.244 208.787 136.4 208.823 136.578 208.823C136.754 208.823 136.908 208.787 137.04 208.715C137.174 208.641 137.285 208.541 137.373 208.413C137.461 208.286 137.527 208.14 137.57 207.976C137.617 207.81 137.64 207.633 137.64 207.445V207.366C137.64 207.181 137.617 207.006 137.57 206.842C137.527 206.675 137.459 206.528 137.369 206.401C137.281 206.272 137.17 206.17 137.036 206.096C136.904 206.022 136.749 205.985 136.571 205.985C136.395 205.985 136.24 206.022 136.106 206.096C135.974 206.17 135.863 206.272 135.773 206.401C135.685 206.528 135.619 206.675 135.575 206.842C135.532 207.006 135.51 207.181 135.51 207.366ZM139.732 206.328V209.281H139.09V205.527H139.697L139.732 206.328ZM139.579 207.261L139.312 207.251C139.315 206.994 139.353 206.757 139.427 206.54C139.501 206.32 139.605 206.129 139.739 205.967C139.873 205.805 140.033 205.681 140.218 205.593C140.405 205.502 140.612 205.457 140.839 205.457C141.024 205.457 141.19 205.483 141.338 205.534C141.486 205.582 141.613 205.661 141.717 205.77C141.823 205.878 141.904 206.019 141.959 206.193C142.015 206.364 142.043 206.573 142.043 206.821V209.281H141.397V206.814C141.397 206.617 141.369 206.46 141.311 206.342C141.253 206.222 141.168 206.135 141.057 206.082C140.946 206.026 140.81 205.999 140.648 205.999C140.488 205.999 140.343 206.032 140.211 206.099C140.081 206.166 139.969 206.259 139.874 206.377C139.782 206.495 139.709 206.63 139.656 206.783C139.605 206.933 139.579 207.093 139.579 207.261ZM143.875 209.281H143.233V205.201C143.233 204.916 143.288 204.676 143.399 204.479C143.51 204.282 143.669 204.133 143.875 204.031C144.081 203.93 144.325 203.879 144.607 203.879C144.773 203.879 144.936 203.899 145.096 203.941C145.256 203.98 145.42 204.03 145.589 204.09L145.481 204.632C145.375 204.59 145.251 204.551 145.11 204.514C144.971 204.474 144.818 204.455 144.652 204.455C144.377 204.455 144.178 204.517 144.055 204.642C143.935 204.765 143.875 204.951 143.875 205.201V209.281ZM144.641 205.527V206.019H142.64V205.527H144.641ZM145.904 205.527V209.281H145.263V205.527H145.904ZM147.597 206.117V209.281H146.955V205.527H147.579L147.597 206.117ZM148.769 205.506L148.766 206.103C148.713 206.091 148.662 206.084 148.613 206.082C148.567 206.077 148.514 206.075 148.454 206.075C148.306 206.075 148.175 206.098 148.062 206.144C147.948 206.191 147.852 206.255 147.774 206.339C147.695 206.422 147.633 206.521 147.586 206.637C147.542 206.75 147.513 206.875 147.5 207.012L147.319 207.116C147.319 206.889 147.341 206.676 147.385 206.477C147.431 206.278 147.502 206.103 147.597 205.95C147.692 205.795 147.812 205.675 147.958 205.589C148.106 205.501 148.281 205.457 148.485 205.457C148.531 205.457 148.584 205.463 148.645 205.475C148.705 205.484 148.746 205.494 148.769 205.506ZM150.001 206.273V209.281H149.356V205.527H149.966L150.001 206.273ZM149.869 207.261L149.571 207.251C149.573 206.994 149.607 206.757 149.672 206.54C149.736 206.32 149.832 206.129 149.96 205.967C150.087 205.805 150.245 205.681 150.435 205.593C150.625 205.502 150.844 205.457 151.094 205.457C151.27 205.457 151.432 205.483 151.58 205.534C151.728 205.582 151.856 205.66 151.965 205.766C152.074 205.873 152.158 206.009 152.218 206.176C152.278 206.342 152.308 206.543 152.308 206.779V209.281H151.667V206.81C151.667 206.614 151.633 206.457 151.566 206.339C151.501 206.221 151.409 206.135 151.288 206.082C151.168 206.026 151.027 205.999 150.865 205.999C150.675 205.999 150.517 206.032 150.39 206.099C150.263 206.166 150.161 206.259 150.084 206.377C150.008 206.495 149.953 206.63 149.918 206.783C149.886 206.933 149.869 207.093 149.869 207.261ZM152.302 206.908L151.871 207.039C151.874 206.834 151.907 206.636 151.972 206.446C152.039 206.256 152.135 206.088 152.26 205.94C152.387 205.792 152.543 205.675 152.728 205.589C152.913 205.501 153.125 205.457 153.363 205.457C153.564 205.457 153.743 205.484 153.898 205.537C154.055 205.59 154.187 205.672 154.293 205.783C154.402 205.892 154.484 206.032 154.539 206.203C154.595 206.374 154.623 206.578 154.623 206.814V209.281H153.977V206.807C153.977 206.596 153.944 206.433 153.877 206.318C153.812 206.2 153.719 206.118 153.599 206.071C153.481 206.023 153.34 205.999 153.176 205.999C153.035 205.999 152.91 206.023 152.801 206.071C152.692 206.12 152.601 206.187 152.527 206.273C152.453 206.356 152.396 206.452 152.357 206.561C152.32 206.669 152.302 206.785 152.302 206.908Z" fill="white"/>
<path fill-rule="evenodd" clip-rule="evenodd" d="M136.443 176.697C136.524 176.614 136.553 176.494 136.518 176.382C136.483 176.27 136.391 176.19 136.28 176.174L135.303 176.025C135.284 176.022 135.267 176.01 135.259 175.991L134.822 175.069C134.771 174.963 134.67 174.897 134.557 174.897C134.444 174.897 134.343 174.963 134.293 175.069L133.856 175.991C133.848 176.01 133.83 176.022 133.812 176.025L132.834 176.174C132.722 176.191 132.631 176.27 132.596 176.382C132.561 176.495 132.59 176.615 132.671 176.697L133.378 177.416C133.393 177.43 133.398 177.45 133.396 177.47L133.228 178.486C133.209 178.601 133.255 178.717 133.345 178.786C133.436 178.855 133.556 178.864 133.655 178.809L134.53 178.331C134.547 178.321 134.568 178.321 134.584 178.331L135.458 178.809C135.502 178.833 135.549 178.844 135.595 178.844C135.657 178.844 135.717 178.825 135.768 178.786C135.86 178.717 135.904 178.601 135.886 178.486L135.719 177.47C135.716 177.45 135.722 177.43 135.736 177.415L136.443 176.697Z" fill="#FFD400"/>
<path fill-rule="evenodd" clip-rule="evenodd" d="M141.126 176.697C141.208 176.614 141.236 176.494 141.201 176.382C141.166 176.27 141.074 176.19 140.964 176.174L139.986 176.025C139.967 176.022 139.95 176.01 139.942 175.991L139.505 175.069C139.455 174.963 139.353 174.897 139.24 174.897C139.127 174.897 139.026 174.963 138.977 175.069L138.539 175.991C138.53 176.01 138.514 176.022 138.495 176.025L137.518 176.174C137.406 176.191 137.315 176.27 137.279 176.382C137.244 176.495 137.274 176.615 137.354 176.697L138.062 177.416C138.076 177.43 138.082 177.45 138.079 177.47L137.911 178.486C137.892 178.601 137.938 178.717 138.028 178.786C138.119 178.855 138.239 178.864 138.338 178.809L139.213 178.331C139.23 178.321 139.251 178.321 139.267 178.331L140.141 178.809C140.185 178.833 140.233 178.844 140.278 178.844C140.34 178.844 140.4 178.825 140.451 178.786C140.543 178.717 140.588 178.601 140.569 178.486L140.402 177.47C140.399 177.45 140.405 177.43 140.419 177.415L141.126 176.697Z" fill="#FFD400"/>
<path fill-rule="evenodd" clip-rule="evenodd" d="M146.16 176.697C146.242 176.614 146.27 176.494 146.235 176.382C146.2 176.27 146.108 176.19 145.998 176.174L145.02 176.025C145.001 176.022 144.984 176.01 144.976 175.991L144.539 175.069C144.489 174.963 144.387 174.897 144.274 174.897C144.161 174.897 144.06 174.963 144.011 175.069L143.573 175.991C143.565 176.01 143.548 176.022 143.529 176.025L142.552 176.174C142.44 176.191 142.349 176.27 142.313 176.382C142.278 176.495 142.308 176.615 142.388 176.697L143.096 177.416C143.11 177.43 143.116 177.45 143.113 177.47L142.945 178.486C142.926 178.601 142.972 178.717 143.062 178.786C143.153 178.855 143.273 178.864 143.372 178.809L144.247 178.331C144.264 178.321 144.285 178.321 144.301 178.331L145.175 178.809C145.219 178.833 145.267 178.844 145.312 178.844C145.374 178.844 145.434 178.825 145.485 178.786C145.577 178.717 145.622 178.601 145.603 178.486L145.436 177.47C145.433 177.45 145.439 177.43 145.453 177.415L146.16 176.697Z" fill="#FFD400"/>
<path fill-rule="evenodd" clip-rule="evenodd" d="M150.843 176.697C150.924 176.614 150.952 176.494 150.917 176.382C150.883 176.27 150.791 176.19 150.68 176.174L149.703 176.025C149.683 176.022 149.667 176.01 149.658 175.991L149.222 175.069C149.171 174.963 149.07 174.897 148.957 174.897C148.843 174.897 148.742 174.963 148.693 175.069L148.256 175.991C148.248 176.01 148.231 176.022 148.212 176.025L147.235 176.174C147.123 176.191 147.031 176.27 146.996 176.382C146.962 176.495 146.991 176.615 147.071 176.697L147.778 177.416C147.792 177.43 147.798 177.45 147.795 177.47L147.628 178.486C147.609 178.601 147.654 178.717 147.745 178.786C147.836 178.855 147.956 178.864 148.055 178.809L148.929 178.331C148.946 178.321 148.967 178.321 148.984 178.331L149.858 178.809C149.902 178.833 149.949 178.844 149.996 178.844C150.057 178.844 150.117 178.825 150.169 178.786C150.261 178.717 150.305 178.601 150.286 178.486L150.119 177.47C150.116 177.45 150.122 177.43 150.135 177.415L150.843 176.697Z" fill="#FFD400"/>
<path fill-rule="evenodd" clip-rule="evenodd" d="M155.666 176.697C155.747 176.614 155.776 176.494 155.741 176.382C155.706 176.27 155.615 176.19 155.503 176.174L154.526 176.025C154.507 176.022 154.491 176.01 154.481 175.991L154.045 175.069C153.994 174.963 153.893 174.897 153.78 174.897C153.667 174.897 153.566 174.963 153.516 175.069L153.079 175.991C153.071 176.01 153.053 176.022 153.035 176.025L152.058 176.174C151.946 176.191 151.854 176.27 151.819 176.382C151.785 176.495 151.813 176.615 151.894 176.697L152.601 177.416C152.616 177.43 152.621 177.45 152.619 177.47L152.451 178.486C152.433 178.601 152.478 178.717 152.569 178.786C152.66 178.855 152.779 178.864 152.879 178.809L153.753 178.331C153.77 178.321 153.79 178.321 153.807 178.331L154.681 178.809C154.725 178.833 154.772 178.844 154.819 178.844C154.88 178.844 154.94 178.825 154.992 178.786C155.083 178.717 155.128 178.601 155.109 178.486L154.943 177.47C154.939 177.45 154.945 177.43 154.959 177.415L155.666 176.697Z" fill="#FFD400"/>
</svg>
