<svg width="109" height="64" viewBox="0 0 109 64" fill="none" xmlns="http://www.w3.org/2000/svg">
<g filter="url(#filter0_d_27_99)">
<path d="M78.623 35.3516C78.623 37.4837 78.2487 39.445 77.5 41.2354C76.7676 43.0257 75.7503 44.5719 74.4482 45.874C73.1462 47.1598 71.5999 48.1689 69.8096 48.9014C68.0192 49.6338 66.0742 50 63.9746 50H46.8359C46.3802 50 45.957 49.9186 45.5664 49.7559C45.1758 49.5931 44.834 49.3734 44.541 49.0967C44.2643 48.8037 44.0446 48.4619 43.8818 48.0713C43.7191 47.6807 43.6377 47.2575 43.6377 46.8018V18.1885C43.6377 17.749 43.7191 17.334 43.8818 16.9434C44.0446 16.5527 44.2643 16.2109 44.541 15.918C44.834 15.625 45.1758 15.3971 45.5664 15.2344C45.957 15.0716 46.3802 14.9902 46.8359 14.9902H63.9746C66.0742 14.9902 68.0192 15.3564 69.8096 16.0889C71.5999 16.8213 73.1462 17.8385 74.4482 19.1406C75.7503 20.4264 76.7676 21.9727 77.5 23.7793C78.2487 25.5697 78.623 27.5228 78.623 29.6387V35.3516ZM72.2754 29.6387C72.2754 28.4017 72.0719 27.2705 71.665 26.2451C71.2744 25.2197 70.7129 24.349 69.9805 23.6328C69.248 22.9004 68.3691 22.3389 67.3438 21.9482C66.3346 21.5413 65.2116 21.3379 63.9746 21.3379H49.9854V43.6523H63.9746C65.2116 43.6523 66.3346 43.457 67.3438 43.0664C68.3691 42.6595 69.248 42.098 69.9805 41.3818C70.7129 40.6494 71.2744 39.7786 71.665 38.7695C72.0719 37.7441 72.2754 36.6048 72.2754 35.3516V29.6387Z" fill="url(#paint0_linear_27_99)"/>
<path d="M101.471 35.6934H81.4268V29.2969H101.471V35.6934ZM104.327 50H81.4268C80.5479 50 79.5876 49.8454 78.5459 49.5361C77.5042 49.2269 76.5358 48.7223 75.6406 48.0225C74.7617 47.3063 74.0212 46.3867 73.4189 45.2637C72.833 44.1243 72.54 42.7327 72.54 41.0889V18.1885C72.54 17.749 72.6214 17.334 72.7842 16.9434C72.9469 16.5527 73.1667 16.2109 73.4434 15.918C73.7363 15.625 74.0781 15.3971 74.4688 15.2344C74.8594 15.0716 75.2826 14.9902 75.7383 14.9902H104.327V21.3379H78.8877V41.0889C78.8877 41.9189 79.1074 42.5537 79.5469 42.9932C79.9863 43.4326 80.6292 43.6523 81.4756 43.6523H104.327V50Z" fill="url(#paint1_linear_27_99)"/>
<path d="M39.6719 26.7578C39.6719 28.2064 39.4928 29.5003 39.1348 30.6396C38.7767 31.779 38.2884 32.7881 37.6699 33.667C37.0677 34.5296 36.3678 35.2702 35.5703 35.8887C34.7728 36.5072 33.9346 37.0199 33.0557 37.4268C32.193 37.8174 31.3141 38.1022 30.4189 38.2812C29.54 38.4603 28.71 38.5498 27.9287 38.5498L41.1855 50H31.3711L18.1387 38.5498H13.5732V32.2021H27.9287C28.7262 32.137 29.4505 31.9743 30.1016 31.7139C30.7689 31.4372 31.3385 31.071 31.8105 30.6152C32.2988 30.1595 32.6732 29.6143 32.9336 28.9795C33.194 28.3285 33.3242 27.5879 33.3242 26.7578V22.7539C33.3242 22.3958 33.2754 22.1273 33.1777 21.9482C33.0964 21.7529 32.9824 21.6146 32.8359 21.5332C32.7057 21.4355 32.5592 21.3786 32.3965 21.3623C32.25 21.346 32.1117 21.3379 31.9814 21.3379H11.0342V50H4.68652V18.1885C4.68652 17.749 4.7679 17.334 4.93066 16.9434C5.09342 16.5527 5.31315 16.2109 5.58984 15.918C5.88281 15.625 6.22461 15.3971 6.61523 15.2344C7.00586 15.0716 7.42904 14.9902 7.88477 14.9902H31.9814C33.3975 14.9902 34.5938 15.2507 35.5703 15.7715C36.5469 16.276 37.3363 16.9189 37.9385 17.7002C38.557 18.4652 38.9964 19.2952 39.2568 20.1904C39.5335 21.0856 39.6719 21.9238 39.6719 22.7051V26.7578Z" fill="url(#paint2_linear_27_99)"/>
<path d="M37 17C37 15.8954 37.8954 15 39 15H42C43.1046 15 44 15.8954 44 17V48C44 49.1046 43.1046 50 42 50H39C37.8954 50 37 49.1046 37 48V17Z" fill="url(#paint3_linear_27_99)"/>
<path d="M40 17.1212H41V19.8659H40V17.1212Z" fill="#242424"/>
<path d="M40 22.6106H41V25.3554H40V22.6106Z" fill="#242424"/>
<path d="M40 28.1001H41V30.8448H40V28.1001Z" fill="#242424"/>
<path d="M40 35.2479H41V37.9545H40V35.2479Z" fill="#F9C32B"/>
<path d="M40 39.759H41V42.4656H40V39.759Z" fill="#F9C32B"/>
<path d="M40 45.1722H41V47.8788H40V45.1722Z" fill="#F9C32B"/>
<path d="M63.5821 35.0121L61.4694 37.9073C61.358 38.06 61.2122 38.1841 61.0437 38.2697C60.8753 38.3553 60.689 38.4 60.5001 38.4C60.3111 38.4 60.1249 38.3553 59.9564 38.2697C59.788 38.1841 59.6422 38.06 59.5308 37.9073L57.418 35.0121C54.8136 35.3884 53 36.2262 53 37.2C53 38.5255 56.3579 39.6 60.5 39.6C64.6421 39.6 68 38.5255 68 37.2C68 36.2262 66.1865 35.3885 63.5821 35.0121Z" fill="#F9C32B"/>
<path d="M60.5 37.2L64.4544 31.781C64.9871 31.051 65.3073 30.1878 65.3796 29.287C65.4519 28.3863 65.2735 27.483 64.8641 26.6774C64.4546 25.8718 63.8302 25.1953 63.0599 24.7227C62.2897 24.2501 61.4036 24 60.5 24C59.5963 24 58.7102 24.2501 57.94 24.7227C57.1697 25.1953 56.5453 25.8718 56.1359 26.6774C55.7264 27.483 55.548 28.3863 55.6203 29.287C55.6926 30.1878 56.0128 31.051 56.5455 31.781L60.5 37.2ZM60.5 26.7226C60.9297 26.7226 61.3498 26.85 61.7071 27.0887C62.0645 27.3275 62.343 27.6669 62.5074 28.0639C62.6719 28.4609 62.7149 28.8978 62.6311 29.3193C62.5472 29.7408 62.3403 30.128 62.0364 30.4319C61.7325 30.7357 61.3454 30.9427 60.9239 31.0265C60.5024 31.1104 60.0655 31.0673 59.6684 30.9029C59.2714 30.7384 58.9321 30.4599 58.6933 30.1026C58.4545 29.7453 58.3271 29.3252 58.3271 28.8954C58.3271 28.3191 58.556 27.7665 58.9635 27.359C59.371 26.9515 59.9237 26.7226 60.5 26.7226Z" fill="#242424"/>
</g>
<defs>
<filter id="filter0_d_27_99" x="0.686523" y="14.9902" width="107.641" height="43.0098" filterUnits="userSpaceOnUse" color-interpolation-filters="sRGB">
<feFlood flood-opacity="0" result="BackgroundImageFix"/>
<feColorMatrix in="SourceAlpha" type="matrix" values="0 0 0 0 0 0 0 0 0 0 0 0 0 0 0 0 0 0 127 0" result="hardAlpha"/>
<feOffset dy="4"/>
<feGaussianBlur stdDeviation="2"/>
<feComposite in2="hardAlpha" operator="out"/>
<feColorMatrix type="matrix" values="0 0 0 0 0 0 0 0 0 0 0 0 0 0 0 0 0 0 0.25 0"/>
<feBlend mode="normal" in2="BackgroundImageFix" result="effect1_dropShadow_27_99"/>
<feBlend mode="normal" in="SourceGraphic" in2="effect1_dropShadow_27_99" result="shape"/>
</filter>
<linearGradient id="paint0_linear_27_99" x1="60" y1="0" x2="60" y2="59" gradientUnits="userSpaceOnUse">
<stop offset="0.549409" stop-color="#F9C32B"/>
<stop offset="0.551036" stop-color="#242424"/>
</linearGradient>
<linearGradient id="paint1_linear_27_99" x1="88" y1="0" x2="88" y2="64" gradientUnits="userSpaceOnUse">
<stop offset="0.506606" stop-color="#F9C32B"/>
<stop offset="0.506606" stop-color="#242424"/>
</linearGradient>
<linearGradient id="paint2_linear_27_99" x1="20.5" y1="0" x2="20.5" y2="64" gradientUnits="userSpaceOnUse">
<stop offset="0.508991" stop-color="#F9C32B"/>
<stop offset="0.508991" stop-color="#242424"/>
</linearGradient>
<linearGradient id="paint3_linear_27_99" x1="40.5" y1="15.5303" x2="40.5" y2="50.5303" gradientUnits="userSpaceOnUse">
<stop offset="0.484702" stop-color="#F9C32B"/>
<stop offset="0.486302" stop-color="#242424"/>
</linearGradient>
</defs>
</svg>
