<svg width="104" height="62" viewBox="0 0 104 62" fill="none" xmlns="http://www.w3.org/2000/svg">
<g filter="url(#filter0_d_141_2)">
<path d="M38.6206 19.9111H24.9111V48H18.6904V19.9111H4.95703V13.6904H38.6206V19.9111Z" fill="url(#paint0_linear_141_2)"/>
<path d="M68.2285 44.8657C68.2285 45.3123 68.1488 45.7271 67.9893 46.1099C67.8298 46.4927 67.6064 46.8276 67.3193 47.1147C67.0322 47.3859 66.6973 47.6012 66.3145 47.7607C65.9316 47.9202 65.5249 48 65.0942 48H51.0737C49.7498 48 48.41 47.8564 47.0542 47.5693C45.6984 47.2822 44.3825 46.8436 43.1064 46.2534C41.8464 45.6473 40.658 44.8817 39.5415 43.9565C38.425 43.0314 37.444 41.9388 36.5986 40.6787C35.7692 39.4027 35.1152 37.9512 34.6367 36.3242C34.1582 34.6813 33.9189 32.855 33.9189 30.8452V13.6904H40.1396V30.8452C40.1396 32.5998 40.3789 34.0832 40.8574 35.2954C41.3519 36.5076 41.974 37.5205 42.7236 38.334C43.4733 39.1475 44.2948 39.7855 45.188 40.248C46.0812 40.7106 46.9266 41.0535 47.7241 41.2769C48.5376 41.5002 49.2474 41.6437 49.8535 41.7075C50.4756 41.7554 50.8823 41.7793 51.0737 41.7793H62.0078V13.6904H68.2285V44.8657Z" fill="url(#paint1_linear_141_2)"/>
<path d="M99.5732 48H90.7446L76.748 33.9795H72.3696V27.7109H76.748L90.7446 13.6904H99.5732L81.9399 30.8452L99.5732 48ZM69.8813 48H63.6606V13.6904H69.8813V48Z" fill="url(#paint2_linear_141_2)"/>
</g>
<g filter="url(#filter1_d_141_2)">
<path fill-rule="evenodd" clip-rule="evenodd" d="M43.2186 17.1829C43.7676 16.5753 44.4106 16.2071 45.1793 16.0601C45.3972 16.0184 46.8323 16.0066 52.0165 16.0037L58.5779 16L58.6861 16.0881C58.7926 16.1748 58.7941 16.1821 58.7775 16.5468C58.7573 16.9909 58.6421 17.2799 58.3695 17.5703C58.2061 17.7443 57.7776 17.997 57.6434 17.9985C57.486 18.0002 57.4764 18.0622 57.5956 18.3083C57.7567 18.641 58.0459 19.4431 58.1891 19.9551C58.548 21.2374 58.6924 22.6699 58.5918 23.9509C58.5663 24.2761 58.5362 24.5743 58.525 24.6136C58.5072 24.6754 58.5183 24.6795 58.6081 24.6441C58.6652 24.6217 58.9411 24.6033 59.2212 24.6033H59.7306V25.4392V26.2751H59.2371C58.7315 26.2751 58.5422 26.2326 58.383 26.0835C58.3442 26.0471 58.3043 26.0257 58.2944 26.036C58.2844 26.0463 58.2151 26.274 58.1404 26.542C57.8595 27.5493 57.3494 28.8809 57.1844 29.0375L57.0877 29.1292H52.5077H47.9277L47.906 28.8336C47.8037 27.4374 46.7944 26.2154 45.455 25.8658C45.1046 25.7744 44.422 25.7534 44.0709 25.8233C43.4569 25.9454 42.9092 26.2371 42.4583 26.6821L42.2848 26.8532V23.0355C42.2848 19.4771 42.2814 18.9784 42.4356 18.5346C42.4646 18.4512 42.4991 18.3698 42.5403 18.2703C42.7345 17.8013 42.9009 17.5346 43.2186 17.1829ZM46.5501 18.6784C46.5869 18.4985 46.8179 18.2142 46.9909 18.1361C47.0823 18.0948 47.5081 18.0823 48.8715 18.0811L50.634 18.0795L50.6239 22.6563L50.6139 27.2332L49.6983 27.2442L48.7827 27.2551V25.8766C48.7827 24.4163 48.7648 24.2348 48.5815 23.8407C48.4598 23.5791 48.2168 23.2854 47.9854 23.1204C47.6532 22.8835 47.3998 22.7998 46.9318 22.7724L46.5183 22.7481V20.7909C46.5183 19.7145 46.5326 18.7639 46.5501 18.6784ZM51.2243 23.217V20.6482V18.0795H52.9768H54.7293V22.6675V27.2555L54.0302 27.2444L53.3312 27.2332L53.3208 25.9216L53.3105 24.6101L53.439 24.5819C53.9818 24.463 54.1645 23.7725 53.7488 23.4103C53.6803 23.3506 53.5582 23.2827 53.4777 23.2596C53.3938 23.2355 52.8809 23.2174 52.2778 23.2172L51.2243 23.217ZM55.32 21.9122V19.9959V18.0795H56.0822H56.8444L57.0042 18.4362C57.4876 19.5151 57.8572 20.7762 57.9422 21.637L57.9694 21.9122H56.6446H55.32ZM55.8453 23.8534C55.7386 23.725 55.744 23.5856 55.8608 23.4515C55.914 23.3903 55.9978 23.3801 56.4484 23.3801C56.9215 23.3801 56.9818 23.3883 57.0527 23.4616C57.1522 23.5647 57.1538 23.7503 57.0562 23.8751C56.984 23.9674 56.9598 23.9713 56.4621 23.9713H55.9432L55.8453 23.8534ZM58.6065 27.0701C58.686 26.801 58.7581 26.5582 58.7668 26.5306C58.7862 26.4684 58.9486 26.497 59.2873 26.6222C60.2058 26.9621 60.8666 27.8392 60.972 28.8587L61 29.1292H59.4207H57.8413L57.9431 28.8948C58.1448 28.4299 58.4649 27.5496 58.6065 27.0701ZM43.8519 30.7966C43.5333 30.6283 43.1626 30.1994 43.0365 29.853L42.9957 29.7408H44.671H46.3464L46.319 29.8326C46.2652 30.0129 46.0844 30.2943 45.9064 30.4748C45.3627 31.0259 44.5322 31.156 43.8519 30.7966ZM56.9589 30.4355C56.785 30.2468 56.5408 29.8537 56.5408 29.7626C56.5408 29.7506 57.2939 29.7408 58.2145 29.7408C59.135 29.7408 59.8882 29.7521 59.8882 29.7657C59.8882 29.7794 59.8306 29.9023 59.7604 30.0387C59.1976 31.132 57.7848 31.3321 56.9589 30.4355Z" fill="#242424"/>
<path d="M43.9388 26.4929C42.8988 26.814 42.1391 27.7527 42.0278 28.854L42 29.1292H44.6628H47.3256L47.3249 28.9763C47.3237 28.6939 47.2101 28.2552 47.0532 27.9264C46.7046 27.1958 46.0732 26.6681 45.2991 26.4604C44.9424 26.3646 44.305 26.3799 43.9388 26.4929Z" fill="#242424"/>
</g>
<defs>
<filter id="filter0_d_141_2" x="0.957031" y="13.6904" width="102.616" height="42.3096" filterUnits="userSpaceOnUse" color-interpolation-filters="sRGB">
<feFlood flood-opacity="0" result="BackgroundImageFix"/>
<feColorMatrix in="SourceAlpha" type="matrix" values="0 0 0 0 0 0 0 0 0 0 0 0 0 0 0 0 0 0 127 0" result="hardAlpha"/>
<feOffset dy="4"/>
<feGaussianBlur stdDeviation="2"/>
<feComposite in2="hardAlpha" operator="out"/>
<feColorMatrix type="matrix" values="0 0 0 0 0 0 0 0 0 0 0 0 0 0 0 0 0 0 0.25 0"/>
<feBlend mode="normal" in2="BackgroundImageFix" result="effect1_dropShadow_141_2"/>
<feBlend mode="normal" in="SourceGraphic" in2="effect1_dropShadow_141_2" result="shape"/>
</filter>
<filter id="filter1_d_141_2" x="38" y="16" width="27" height="23" filterUnits="userSpaceOnUse" color-interpolation-filters="sRGB">
<feFlood flood-opacity="0" result="BackgroundImageFix"/>
<feColorMatrix in="SourceAlpha" type="matrix" values="0 0 0 0 0 0 0 0 0 0 0 0 0 0 0 0 0 0 127 0" result="hardAlpha"/>
<feOffset dy="4"/>
<feGaussianBlur stdDeviation="2"/>
<feComposite in2="hardAlpha" operator="out"/>
<feColorMatrix type="matrix" values="0 0 0 0 0 0 0 0 0 0 0 0 0 0 0 0 0 0 0.25 0"/>
<feBlend mode="normal" in2="BackgroundImageFix" result="effect1_dropShadow_141_2"/>
<feBlend mode="normal" in="SourceGraphic" in2="effect1_dropShadow_141_2" result="shape"/>
</filter>
<linearGradient id="paint0_linear_141_2" x1="22" y1="0" x2="22" y2="59" gradientUnits="userSpaceOnUse">
<stop offset="0.525411" stop-color="#F9C32B"/>
<stop offset="0.52597" stop-color="#242424"/>
</linearGradient>
<linearGradient id="paint1_linear_141_2" x1="51.5" y1="0" x2="51.5" y2="62" gradientUnits="userSpaceOnUse">
<stop offset="0.49729" stop-color="#F9C32B"/>
<stop offset="0.498538" stop-color="#242424"/>
</linearGradient>
<linearGradient id="paint2_linear_141_2" x1="80" y1="0" x2="80" y2="62" gradientUnits="userSpaceOnUse">
<stop offset="0.498151" stop-color="#F9C32B"/>
<stop offset="0.498527" stop-color="#242424"/>
</linearGradient>
</defs>
</svg>
